<?xml version="1.0" encoding="utf-8"?>
<svg xmlns="http://www.w3.org/2000/svg" viewBox="0 0 4000 4000" width="4000px" height="4000px" xmlns:bx="https://boxy-svg.com">
  <defs>
    <linearGradient id="color-1" gradientUnits="userSpaceOnUse" gradientTransform="matrix(1, 0, 0, 1, 208.656647, -129.765728)">
      <title>BackgroundDark</title>
      <stop style="stop-color: rgb(11, 15, 40)"/>
    </linearGradient>
    <filter id="drop-shadow-filter-0" bx:preset="drop-shadow 1 10 10 8 0.29 #e1bbef4d" color-interpolation-filters="sRGB" x="-50%" y="-50%" width="200%" height="200%">
      <feGaussianBlur in="SourceAlpha" stdDeviation="8"/>
      <feOffset dx="10" dy="10"/>
      <feComponentTransfer result="offsetblur">
        <feFuncA id="spread-ctrl" type="linear" slope="0.58"/>
      </feComponentTransfer>
      <feFlood flood-color="#e1bbef4d"/>
      <feComposite in2="offsetblur" operator="in"/>
      <feMerge>
        <feMergeNode/>
        <feMergeNode in="SourceGraphic"/>
      </feMerge>
    </filter>
    <linearGradient id="gradient-0-0" href="#gradient-0" gradientUnits="userSpaceOnUse" x1="246" y1="160" x2="246" y2="348"/>
    <linearGradient id="gradient-0">
      <title>LargeLeaf</title>
      <stop style="stop-color: rgb(94, 230, 255);" offset="0"/>
      <stop style="stop-color: rgb(79, 124, 255);" offset="0.5"/>
      <stop style="stop-color: rgb(255, 158, 209);" offset="1"/>
    </linearGradient>
    <linearGradient id="color-2" gradientUnits="userSpaceOnUse">
      <title>Border</title>
      <stop style="stop-color: rgb(0, 0, 0)"/>
    </linearGradient>
    <linearGradient id="gradient-0-1" href="#gradient-0" gradientUnits="userSpaceOnUse" x1="251" y1="244" x2="251" y2="352"/>
    <linearGradient id="color-3" gradientUnits="userSpaceOnUse" gradientTransform="matrix(1, 0, 0, 1, -1701.334457, 419.885651)">
      <title>BackgroundLight</title>
      <stop style="stop-color: rgb(227, 227, 227);"/>
    </linearGradient>
    <filter id="filter-1" bx:preset="drop-shadow 1 10 10 8 0.29 #e1bbef4d" color-interpolation-filters="sRGB" x="-50%" y="-50%" width="200%" height="200%">
      <feGaussianBlur in="SourceAlpha" stdDeviation="8"/>
      <feOffset dx="10" dy="10"/>
      <feComponentTransfer result="offsetblur">
        <feFuncA id="feFuncA-1" type="linear" slope="0.58"/>
      </feComponentTransfer>
      <feFlood flood-color="#e1bbef4d"/>
      <feComposite in2="offsetblur" operator="in"/>
      <feMerge>
        <feMergeNode/>
        <feMergeNode in="SourceGraphic"/>
      </feMerge>
    </filter>
    <linearGradient id="gradient-0-2" href="#gradient-0" gradientUnits="userSpaceOnUse" x1="246" y1="160" x2="246" y2="348"/>
    <linearGradient id="gradient-0-3" href="#gradient-0" gradientUnits="userSpaceOnUse" x1="251" y1="244" x2="251" y2="352"/>
    <filter id="filter-2" bx:preset="drop-shadow 1 10 10 8 0.29 #e1bbef4d" color-interpolation-filters="sRGB" x="-50%" y="-50%" width="200%" height="200%">
      <feGaussianBlur in="SourceAlpha" stdDeviation="8"/>
      <feOffset dx="10" dy="10"/>
      <feComponentTransfer result="offsetblur">
        <feFuncA id="feFuncA-2" type="linear" slope="0.58"/>
      </feComponentTransfer>
      <feFlood flood-color="#e1bbef4d"/>
      <feComposite in2="offsetblur" operator="in"/>
      <feMerge>
        <feMergeNode/>
        <feMergeNode in="SourceGraphic"/>
      </feMerge>
    </filter>
    <linearGradient id="gradient-0-4" href="#gradient-0" gradientUnits="userSpaceOnUse" x1="246" y1="160" x2="246" y2="348"/>
    <linearGradient id="gradient-0-5" href="#gradient-0" gradientUnits="userSpaceOnUse" x1="251" y1="244" x2="251" y2="352"/>
    <filter id="filter-3" bx:preset="drop-shadow 1 10 10 8 0.29 #e1bbef4d" color-interpolation-filters="sRGB" x="-50%" y="-50%" width="200%" height="200%">
      <feGaussianBlur in="SourceAlpha" stdDeviation="8"/>
      <feOffset dx="10" dy="10"/>
      <feComponentTransfer result="offsetblur">
        <feFuncA id="feFuncA-3" type="linear" slope="0.58"/>
      </feComponentTransfer>
      <feFlood flood-color="#e1bbef4d"/>
      <feComposite in2="offsetblur" operator="in"/>
      <feMerge>
        <feMergeNode/>
        <feMergeNode in="SourceGraphic"/>
      </feMerge>
    </filter>
    <linearGradient id="gradient-0-6" href="#gradient-0" gradientUnits="userSpaceOnUse" x1="246" y1="160" x2="246" y2="348"/>
    <linearGradient id="gradient-0-7" href="#gradient-0" gradientUnits="userSpaceOnUse" x1="251" y1="244" x2="251" y2="352"/>
    <filter id="filter-4" bx:preset="drop-shadow 1 10 10 8 0.29 #e1bbef4d" color-interpolation-filters="sRGB" x="-50%" y="-50%" width="200%" height="200%">
      <feGaussianBlur in="SourceAlpha" stdDeviation="8"/>
      <feOffset dx="10" dy="10"/>
      <feComponentTransfer result="offsetblur">
        <feFuncA id="feFuncA-4" type="linear" slope="0.58"/>
      </feComponentTransfer>
      <feFlood flood-color="#e1bbef4d"/>
      <feComposite in2="offsetblur" operator="in"/>
      <feMerge>
        <feMergeNode/>
        <feMergeNode in="SourceGraphic"/>
      </feMerge>
    </filter>
    <linearGradient gradientUnits="userSpaceOnUse" x1="251" y1="244" x2="251" y2="352" id="gradient-1" spreadMethod="pad" gradientTransform="matrix(0.999756, 0.022108, -0.030717, 1.389077, 10.873581, -142.503962)">
      <stop offset="0" style="stop-color: rgb(125, 130, 162);"/>
      <stop offset="1" style="stop-color: rgb(2.1421% 3.309% 14.109%)"/>
    </linearGradient>
    <linearGradient id="gradient-2" bx:pinned="true">
      <title>LeafDark</title>
      <stop style="stop-color: rgb(125, 130, 162);" offset="0"/>
      <stop style="stop-color: rgb(5, 8, 36);" offset="1"/>
    </linearGradient>
    <linearGradient id="gradient-2-0" href="#gradient-2" gradientUnits="userSpaceOnUse" x1="246" y1="160" x2="246" y2="348"/>
    <bx:export>
      <bx:file format="png" href="#object-0" path="circle-driftya-icon.png"/>
      <bx:file format="png" href="#object-1" path="icon-square.png"/>
      <bx:file format="png" href="#object-2" path="logo_with_title.png">
        <bx:variant scale="2" suffix="@2x"/>
        <bx:variant scale="3" suffix="@3x"/>
      </bx:file>
      <bx:file format="png" href="#object-3" path="monochrome.png">
        <bx:variant scale="2" suffix="@2x"/>
        <bx:variant scale="3" suffix="@3x"/>
      </bx:file>
      <bx:file format="png" href="#object-4" path="Logo.png">
        <bx:variant scale="2" suffix="@2x"/>
        <bx:variant scale="3" suffix="@3x"/>
      </bx:file>
      <bx:file format="png" href="#phone" path="Phone.png">
        <bx:variant scale="2" suffix="@2x"/>
        <bx:variant scale="3" suffix="@3x"/>
      </bx:file>
      <bx:file format="svg" href="#object-5" path="Namnlös.svg"/>
      <bx:file format="svg" href="#object-6" path="Namnlös 2.svg"/>
      <bx:file format="svg" href="#object-7" path="Namnlös 3.svg"/>
      <bx:file format="svg" href="#object-8" path="Namnlös 4.svg"/>
      <bx:file format="svg" href="#object-9" path="Namnlös 5.svg"/>
      <bx:file format="svg" href="#object-10" path="Namnlös 6.svg"/>
      <bx:file format="svg" href="#object-11" path="Namnlös 7.svg"/>
      <bx:file format="svg" href="#object-12" path="Namnlös 8.svg"/>
      <bx:file format="svg" href="#object-13" path="Namnlös 9.svg"/>
      <bx:file format="svg" href="#object-14" path="Namnlös 10.svg"/>
      <bx:file format="svg" href="#object-15" path="Namnlös 11.svg"/>
      <bx:file format="svg" href="#object-16" path="Namnlös 12.svg"/>
      <bx:file format="svg" href="#object-17" path="Namnlös 13.svg"/>
      <bx:file format="svg" href="#object-18" path="Namnlös 14.svg"/>
      <bx:file format="svg" href="#object-19" path="Namnlös 15.svg"/>
      <bx:file format="svg" href="#object-20" path="Namnlös 16.svg"/>
      <bx:file format="svg" href="#object-21" path="Namnlös 17.svg"/>
      <bx:file format="svg" href="#object-22" path="Balloon.svg"/>
      <bx:file format="svg" href="#object-23" path="floating-island.svg"/>
    </bx:export>
    <linearGradient id="color-0" gradientUnits="userSpaceOnUse" bx:pinned="true">
      <title>accent-1</title>
      <stop style="stop-color: rgb(79, 124, 255)"/>
    </linearGradient>
    <linearGradient id="color-4" gradientUnits="userSpaceOnUse" bx:pinned="true">
      <title>accent-2</title>
      <stop style="stop-color: rgb(94, 230, 255)"/>
    </linearGradient>
    <linearGradient id="color-5" gradientUnits="userSpaceOnUse" bx:pinned="true">
      <title>accent-3</title>
      <stop style="stop-color: rgb(255, 158, 209)"/>
    </linearGradient>
    <filter id="filter-5" bx:preset="drop-shadow 1 10 10 8 0.29 #e1bbef4d" color-interpolation-filters="sRGB" x="-50%" y="-50%" width="200%" height="200%">
      <feGaussianBlur in="SourceAlpha" stdDeviation="8"/>
      <feOffset dx="10" dy="10"/>
      <feComponentTransfer result="offsetblur">
        <feFuncA id="feFuncA-5" type="linear" slope="0.58"/>
      </feComponentTransfer>
      <feFlood flood-color="#e1bbef4d"/>
      <feComposite in2="offsetblur" operator="in"/>
      <feMerge>
        <feMergeNode/>
        <feMergeNode in="SourceGraphic"/>
      </feMerge>
    </filter>
    <linearGradient id="gradient-2-1" href="#gradient-2" gradientUnits="userSpaceOnUse" x1="246" y1="160" x2="246" y2="348"/>
    <linearGradient id="gradient-2-2" href="#gradient-2" gradientUnits="userSpaceOnUse" x1="251" y1="244" x2="251" y2="352"/>
    <filter id="filter-6" bx:preset="drop-shadow 1 10 10 8 0.29 #e1bbef4d" color-interpolation-filters="sRGB" x="-50%" y="-50%" width="200%" height="200%">
      <feGaussianBlur in="SourceAlpha" stdDeviation="8"/>
      <feOffset dx="10" dy="10"/>
      <feComponentTransfer result="offsetblur">
        <feFuncA id="feFuncA-6" type="linear" slope="0.58"/>
      </feComponentTransfer>
      <feFlood flood-color="#e1bbef4d"/>
      <feComposite in2="offsetblur" operator="in"/>
      <feMerge>
        <feMergeNode/>
        <feMergeNode in="SourceGraphic"/>
      </feMerge>
    </filter>
    <linearGradient id="gradient-0-8" href="#gradient-0" gradientUnits="userSpaceOnUse" x1="246" y1="160" x2="246" y2="348"/>
    <linearGradient id="gradient-0-9" href="#gradient-0" gradientUnits="userSpaceOnUse" x1="251" y1="244" x2="251" y2="352"/>
    <linearGradient id="color-6" gradientUnits="userSpaceOnUse" bx:pinned="true">
      <title>DarkTextColor</title>
      <stop style="stop-color: rgb(11, 15, 40)"/>
    </linearGradient>
    <filter id="softGlow" x="-50%" y="-50%" width="200%" height="200%">
      <feGaussianBlur stdDeviation="6" result="b"/>
      <feMerge>
        <feMergeNode in="b"/>
        <feMergeNode in="SourceGraphic"/>
      </feMerge>
    </filter>
    <radialGradient id="base" cx="15%" cy="10%" r="160%">
      <stop offset="0" stop-color="rgba(255,255,255,0.20)"/>
      <stop offset="0.4" stop-color="rgba(88,122,255,0.25)"/>
      <stop offset="1" stop-color="rgba(6,10,34,0.95)"/>
    </radialGradient>
    <radialGradient id="accentWash" cx="18%" cy="12%" r="45%">
      <stop offset="0" stop-color="rgba(94,230,255,0.10)"/>
      <stop offset="0.55" stop-color="rgba(94,230,255,0.05)"/>
      <stop offset="1" stop-color="rgba(94,230,255,0.00)"/>
    </radialGradient>
    <radialGradient id="vignette" cx="50%" cy="55%" r="80%">
      <stop offset="0" stop-color="rgba(0,0,0,0.00)"/>
      <stop offset="0.7" stop-color="rgba(0,0,0,0.10)"/>
      <stop offset="1" stop-color="rgba(0,0,0,0.22)"/>
    </radialGradient>
    <filter id="filter-7" bx:preset="drop-shadow 1 10 10 8 0.29 #e1bbef4d" color-interpolation-filters="sRGB" x="-50%" y="-50%" width="200%" height="200%">
      <feGaussianBlur in="SourceAlpha" stdDeviation="8"/>
      <feOffset dx="10" dy="10"/>
      <feComponentTransfer result="offsetblur">
        <feFuncA id="feFuncA-7" type="linear" slope="0.58"/>
      </feComponentTransfer>
      <feFlood flood-color="#e1bbef4d"/>
      <feComposite in2="offsetblur" operator="in"/>
      <feMerge>
        <feMergeNode/>
        <feMergeNode in="SourceGraphic"/>
      </feMerge>
    </filter>
    <linearGradient id="gradient-0-10" href="#gradient-0" gradientUnits="userSpaceOnUse" x1="246" y1="160" x2="246" y2="348"/>
    <linearGradient id="gradient-0-11" href="#gradient-0" gradientUnits="userSpaceOnUse" x1="251" y1="244" x2="251" y2="352"/>
    <filter id="filter-8" bx:preset="drop-shadow 1 10 10 8 0.29 #e1bbef4d" color-interpolation-filters="sRGB" x="-50%" y="-50%" width="200%" height="200%">
      <feGaussianBlur in="SourceAlpha" stdDeviation="8"/>
      <feOffset dx="10" dy="10"/>
      <feComponentTransfer result="offsetblur">
        <feFuncA id="feFuncA-8" type="linear" slope="0.58"/>
      </feComponentTransfer>
      <feFlood flood-color="#e1bbef4d"/>
      <feComposite in2="offsetblur" operator="in"/>
      <feMerge>
        <feMergeNode/>
        <feMergeNode in="SourceGraphic"/>
      </feMerge>
    </filter>
    <linearGradient id="gradient-0-12" href="#gradient-0" gradientUnits="userSpaceOnUse" x1="246" y1="160" x2="246" y2="348"/>
    <linearGradient id="gradient-0-13" href="#gradient-0" gradientUnits="userSpaceOnUse" x1="251" y1="244" x2="251" y2="352"/>
    <linearGradient id="color-7" bx:pinned="true" gradientUnits="userSpaceOnUse">
      <title>TextColor</title>
      <stop style="stop-color: rgb(245, 247, 255);"/>
    </linearGradient>
    <filter id="filter-9" bx:preset="drop-shadow 1 10 10 8 0.29 #e1bbef4d" color-interpolation-filters="sRGB" x="-50%" y="-50%" width="200%" height="200%">
      <feGaussianBlur in="SourceAlpha" stdDeviation="8"/>
      <feOffset dx="10" dy="10"/>
      <feComponentTransfer result="offsetblur">
        <feFuncA id="feFuncA-9" type="linear" slope="0.58"/>
      </feComponentTransfer>
      <feFlood flood-color="#e1bbef4d"/>
      <feComposite in2="offsetblur" operator="in"/>
      <feMerge>
        <feMergeNode/>
        <feMergeNode in="SourceGraphic"/>
      </feMerge>
    </filter>
    <linearGradient id="gradient-2-3" href="#gradient-2" gradientUnits="userSpaceOnUse" x1="246" y1="160" x2="246" y2="348"/>
    <linearGradient gradientUnits="userSpaceOnUse" x1="251" y1="244" x2="251" y2="352" id="gradient-3" spreadMethod="pad" gradientTransform="matrix(0.999756, 0.022108, -0.030717, 1.389077, 10.873581, -142.503962)">
      <stop offset="0" style="stop-color: rgb(125, 130, 162);"/>
      <stop offset="1" style="stop-color: rgb(2.1421% 3.309% 14.109%)"/>
    </linearGradient>
    <filter id="filter-10" bx:preset="drop-shadow 1 10 10 8 0.29 #e1bbef4d" color-interpolation-filters="sRGB" x="-50%" y="-50%" width="200%" height="200%">
      <feGaussianBlur in="SourceAlpha" stdDeviation="8"/>
      <feOffset dx="10" dy="10"/>
      <feComponentTransfer result="offsetblur">
        <feFuncA id="feFuncA-10" type="linear" slope="0.58"/>
      </feComponentTransfer>
      <feFlood flood-color="#e1bbef4d"/>
      <feComposite in2="offsetblur" operator="in"/>
      <feMerge>
        <feMergeNode/>
        <feMergeNode in="SourceGraphic"/>
      </feMerge>
    </filter>
    <linearGradient id="gradient-0-14" href="#gradient-0" gradientUnits="userSpaceOnUse" x1="246" y1="160" x2="246" y2="348"/>
    <linearGradient id="gradient-0-15" href="#gradient-0" gradientUnits="userSpaceOnUse" x1="251" y1="244" x2="251" y2="352"/>
    <clipPath id="screen-clip">
      <rect x="120" y="220" width="840" height="1720" rx="86" ry="86"/>
    </clipPath>
    <filter id="softShadow" x="-20%" y="-20%" width="140%" height="140%">
      <feDropShadow dx="0" dy="22" stdDeviation="22" flood-opacity="0.28"/>
    </filter>
    <linearGradient id="gradient-4" x1="540" x2="540" y1="132.017" y2="2079.997" gradientUnits="userSpaceOnUse">
      <stop style="stop-color: rgb(41, 46, 75);" offset="0"/>
      <stop style="stop-color: rgb(49, 53, 74);" offset="1"/>
    </linearGradient>
    <linearGradient id="color-8" gradientUnits="userSpaceOnUse" bx:pinned="true" gradientTransform="matrix(0.531657, 0, 0, 0.60982, 14376.267822, -5994.618439)">
      <title>IconBorder</title>
      <stop style="stop-color: rgb(77, 77, 77)"/>
    </linearGradient>
    <linearGradient id="color-9" gradientUnits="userSpaceOnUse" bx:pinned="true" gradientTransform="matrix(0.754134, 0, 0, 0.754134, 17.429095, 66.773986)">
      <title>FoliageLight</title>
      <stop style="stop-color: rgb(119, 206, 111)"/>
    </linearGradient>
    <linearGradient id="color-10" gradientUnits="userSpaceOnUse" bx:pinned="true" gradientTransform="matrix(0.718777, 0, 0, 0.718777, -104.316437, -105.919849)">
      <title>FoliageDark</title>
      <stop style="stop-color: rgb(107, 183, 99)"/>
    </linearGradient>
    <linearGradient id="color-11" gradientUnits="userSpaceOnUse" bx:pinned="true" gradientTransform="matrix(0.788052, 0, 0, 1.568559, -89.034729, 200.504467)">
      <title>Wood</title>
      <stop style="stop-color: rgb(224, 151, 79)"/>
    </linearGradient>
  </defs>
  <g transform="matrix(1, 0, 0, 1, 46.242432, 119.163185)" id="object-1" style="pointer-events: none;">
    <title>SquareDarkIcon</title>
    <rect width="512" height="512" rx="128" style="fill: url(&quot;#color-1&quot;); stroke-width: 1;" x="-14.562" y="-91.616"/>
    <g style="filter: url(&quot;#drop-shadow-filter-0&quot;);" transform="matrix(1.866971, 0, 0, 1.866971, -217.836502, -313.561005)">
      <path d="M336 160c-40 8-83 38-114 70-34 35-57 78-66 118 37-6 80-30 113-65 32-34 58-77 67-123z" style="fill: url(&quot;#gradient-0-0&quot;); stroke-width: 0.535627px; stroke-opacity: 0.05; stroke: url(&quot;#color-2&quot;);"/>
      <path d="M176 352c58-10 115-54 150-108-60 10-118 55-150 108z" style="fill: url(&quot;#gradient-0-1&quot;); opacity: 0.9; stroke-width: 0.535627px; stroke-opacity: 0.05; stroke: url(&quot;#color-2&quot;);"/>
    </g>
  </g>
  <g transform="matrix(1, 0, 0, 1, 584.832214, 20.701698)" style="pointer-events: none;">
    <title>SquareLightIcon</title>
    <rect width="512" height="512" rx="128" style="fill: url(&quot;#color-3&quot;);"/>
    <g style="filter: url(&quot;#filter-1&quot;);" transform="matrix(1.866971, 0, 0, 1.866971, -203.274872, -221.94458)">
      <path d="M336 160c-40 8-83 38-114 70-34 35-57 78-66 118 37-6 80-30 113-65 32-34 58-77 67-123z" style="stroke-width: 0.535627px; stroke: url(&quot;#color-2&quot;); stroke-opacity: 0.05; fill: url(&quot;#gradient-0-2&quot;);"/>
      <path d="M176 352c58-10 115-54 150-108-60 10-118 55-150 108z" style="opacity: 0.9; stroke: url(&quot;#color-2&quot;); stroke-width: 0.535627px; stroke-opacity: 0.05; fill: url(&quot;#gradient-0-3&quot;);"/>
    </g>
  </g>
  <g transform="matrix(1, 0, 0, 1, 1516.831055, 291.519989)" id="object-0" style="pointer-events: none;">
    <title>CircleDarkIcon</title>
    <rect width="512" height="512" rx="256" style="fill: url(&quot;#color-1&quot;); stroke-width: 1;" x="-381.58" y="-263.52" ry="256"/>
    <g style="filter: url(&quot;#filter-2&quot;);" transform="matrix(1.866971, 0, 0, 1.866971, -566.827759, -466.244659)">
      <g transform="matrix(0.892712, 0, 0, 0.892712, 16.737093, 17.166252)">
        <path d="M336 160c-40 8-83 38-114 70-34 35-57 78-66 118 37-6 80-30 113-65 32-34 58-77 67-123z" style="stroke-width: 0.535627px; stroke-opacity: 0.05; stroke: url(&quot;#color-2&quot;); fill: url(&quot;#gradient-0-4&quot;);"/>
        <path d="M176 352c58-10 115-54 150-108-60 10-118 55-150 108z" style="opacity: 0.9; stroke-width: 0.535627px; stroke-opacity: 0.05; stroke: url(&quot;#color-2&quot;); fill: url(&quot;#gradient-0-5&quot;);"/>
      </g>
    </g>
  </g>
  <g transform="matrix(1, 0, 0, 1, 1516.831055, 291.519989)" style="pointer-events: none;">
    <title>CircleLightIcon</title>
    <rect width="512" height="512" rx="256" style="stroke-width: 1; fill: url(&quot;#color-3&quot;);" x="188.664" y="-247.91" ry="256"/>
    <g style="filter: url(&quot;#filter-3&quot;);" transform="matrix(1.866971, 0, 0, 1.866971, 3.414136, -450.62912)">
      <g transform="matrix(0.892712, 0, 0, 0.892712, 16.737093, 17.166252)">
        <path d="M336 160c-40 8-83 38-114 70-34 35-57 78-66 118 37-6 80-30 113-65 32-34 58-77 67-123z" style="stroke-width: 0.535627px; stroke-opacity: 0.05; stroke: url(&quot;#color-2&quot;); fill: url(&quot;#gradient-0-6&quot;);"/>
        <path d="M176 352c58-10 115-54 150-108-60 10-118 55-150 108z" style="opacity: 0.9; stroke-width: 0.535627px; stroke-opacity: 0.05; stroke: url(&quot;#color-2&quot;); fill: url(&quot;#gradient-0-7&quot;);"/>
      </g>
    </g>
  </g>
  <g style="filter: url(&quot;#filter-10&quot;); pointer-events: none;" transform="matrix(1.866971, 0, 0, 1.866971, 1502.354004, 1225.624268)" id="object-4">
    <title>Logo</title>
    <g transform="matrix(0.892712, 0, 0, 0.892712, 16.737093, 17.166252)">
      <path d="M336 160c-40 8-83 38-114 70-34 35-57 78-66 118 37-6 80-30 113-65 32-34 58-77 67-123z" style="stroke-width: 0.535627px; stroke-opacity: 0.05; stroke: url(&quot;#color-2&quot;); fill: url(&quot;#gradient-0-14&quot;);"/>
      <path d="M176 352c58-10 115-54 150-108-60 10-118 55-150 108z" style="opacity: 0.9; stroke-width: 0.535627px; stroke-opacity: 0.05; stroke: url(&quot;#color-2&quot;); fill: url(&quot;#gradient-0-15&quot;);"/>
    </g>
  </g>
  <g style="filter: url(&quot;#filter-9&quot;); pointer-events: none;" transform="matrix(1.866971, 0, 0, 1.866971, 1459.130981, 1713.427734)" id="object-3">
    <title>LogoMono</title>
    <g transform="matrix(0.892712, 0, 0, 0.892712, 16.737093, 17.166252)">
      <path d="M336 160c-40 8-83 38-114 70-34 35-57 78-66 118 37-6 80-30 113-65 32-34 58-77 67-123z" style="stroke-width: 0.535627px; stroke-opacity: 0.05; stroke: url(&quot;#color-2&quot;); fill: url(&quot;#gradient-2-3&quot;);"/>
      <path d="M176 352c58-10 115-54 150-108-60 10-118 55-150 108z" style="opacity: 0.9; stroke-width: 0.535627px; stroke-opacity: 0.05; stroke: url(&quot;#color-2&quot;); fill: url(&quot;#gradient-3&quot;);"/>
    </g>
  </g>
  <g transform="matrix(1, 0, 0, 1, 1516.831421, 291.519836)" style="pointer-events: none;">
    <title>CircleIconMono</title>
    <rect width="512" height="512" rx="256" style="stroke-width: 1; fill: url(&quot;#color-3&quot;);" x="-1492.7" y="290.124" ry="256"/>
    <g style="filter: url(&quot;#filter-4&quot;);" transform="matrix(1.866971, 0, 0, 1.866971, -1677.925903, 87.404602)">
      <g transform="matrix(0.892712, 0, 0, 0.892712, 16.737093, 17.166252)">
        <path d="M336 160c-40 8-83 38-114 70-34 35-57 78-66 118 37-6 80-30 113-65 32-34 58-77 67-123z" style="stroke-width: 0.535627px; stroke-opacity: 0.05; stroke: url(&quot;#color-2&quot;); fill: url(&quot;#gradient-2-0&quot;);"/>
        <path d="M176 352c58-10 115-54 150-108-60 10-118 55-150 108z" style="opacity: 0.9; stroke-width: 0.535627px; stroke-opacity: 0.05; stroke: url(&quot;#color-2&quot;); fill: url(&quot;#gradient-1&quot;);"/>
      </g>
    </g>
  </g>
  <g transform="matrix(1, 0, 0, 1, 636.384399, 664.803894)" style="pointer-events: none;">
    <title>SquareIconMono</title>
    <rect width="512" height="512" rx="128" style="stroke-width: 1; fill: url(&quot;#color-3&quot;);" x="-14.562" y="-91.616"/>
    <g style="filter: url(&quot;#filter-5&quot;);" transform="matrix(1.866971, 0, 0, 1.866971, -217.836502, -313.561005)">
      <path d="M336 160c-40 8-83 38-114 70-34 35-57 78-66 118 37-6 80-30 113-65 32-34 58-77 67-123z" style="stroke-width: 0.535627px; stroke-opacity: 0.05; stroke: url(&quot;#color-2&quot;); fill: url(&quot;#gradient-2-1&quot;);"/>
      <path d="M176 352c58-10 115-54 150-108-60 10-118 55-150 108z" style="opacity: 0.9; stroke-width: 0.535627px; stroke-opacity: 0.05; stroke: url(&quot;#color-2&quot;); fill: url(&quot;#gradient-2-2&quot;);"/>
    </g>
  </g>
  <g style="pointer-events: none;">
    <title>Pallets</title>
    <rect x="1451.54" y="851.499" width="82.87" height="80.745" style="fill: rgb(79, 124, 255);"/>
    <rect x="1571.59" y="851.499" width="82.87" height="80.745" style="stroke-width: 1; fill: rgb(94, 230, 255);"/>
    <rect x="1696.96" y="855.75" width="82.87" height="80.745" style="stroke-width: 1; fill: rgb(255, 158, 209);"/>
  </g>
  <g transform="matrix(0.125, 0, 0, 0.125, 685.896688, 2296.421943)" id="object-2" style="pointer-events: none;">
    <title>LogoWithBrandOnLight</title>
    <g>
      <rect width="512" height="512" rx="128" style="fill: url(&quot;#color-1&quot;); stroke-width: 1;" x="-14.562" y="-91.616"/>
      <text style="fill: url(&quot;#color-6&quot;); font-family: &quot;Space Grotesk&quot;; font-size: 336px; font-weight: 500; white-space: pre;" x="617.438" y="282.624">Driftya</text>
    </g>
    <g style="filter: url(&quot;#filter-6&quot;);" transform="matrix(1.866971, 0, 0, 1.866971, -217.836502, -313.561005)">
      <path d="M336 160c-40 8-83 38-114 70-34 35-57 78-66 118 37-6 80-30 113-65 32-34 58-77 67-123z" style="stroke-width: 0.535627px; stroke-opacity: 0.05; stroke: url(&quot;#color-2&quot;); fill: url(&quot;#gradient-0-8&quot;);"/>
      <path d="M176 352c58-10 115-54 150-108-60 10-118 55-150 108z" style="opacity: 0.9; stroke-width: 0.535627px; stroke-opacity: 0.05; stroke: url(&quot;#color-2&quot;); fill: url(&quot;#gradient-0-9&quot;);"/>
    </g>
  </g>
  <radialGradient id="textPocket" cx="52%" cy="46%" r="55%">
    <stop offset="0" stop-color="rgba(11,15,40,0.28)"/>
    <stop offset="0.7" stop-color="rgba(11,15,40,0.10)"/>
    <stop offset="1" stop-color="rgba(11,15,40,0.00)"/>
  </radialGradient>
  <g transform="matrix(1, 0, 0, 1, 373.668743, -1121.806186)" style="pointer-events: none;">
    <title>SquarePosterBackgroundDark</title>
    <rect width="1024" height="1024" style="stroke: rgb(0, 0, 0); fill: rgb(11, 15, 40);" x="2453.62" y="1186"/>
    <g filter="url(#softGlow)" transform="matrix(1, 0, 0, 1, 2453.619385, 1186.001099)" style="opacity: 0.7;">
      <rect width="1024" height="1024" fill="url(#base)" y="" style=""/>
      <rect width="1024" height="1024" fill="url(#accentWash)" y="" style=""/>
      <rect width="1024" height="1024" fill="url(#vignette)" y="" style=""/>
      <rect width="1024" height="1024" fill="url(#textPocket)" y="" style="" x=""/>
    </g>
    <g transform="matrix(0.125, 0, 0, 0.125, 2491.572754, 2118.569336)" style="opacity: 0.85;">
      <g>
        <rect width="512" height="512" rx="128" style="stroke-width: 1; fill: url(&quot;#color-3&quot;);" x="-14.562" y="-91.616"/>
        <text style="fill: url(&quot;#color-7&quot;); font-family: &quot;Space Grotesk&quot;; font-size: 336px; font-weight: 500; white-space: pre;" x="617.438" y="282.624">Driftya</text>
      </g>
      <g style="filter: url(&quot;#filter-8&quot;);" transform="matrix(1.866971, 0, 0, 1.866971, -217.836502, -313.561005)">
        <path d="M336 160c-40 8-83 38-114 70-34 35-57 78-66 118 37-6 80-30 113-65 32-34 58-77 67-123z" style="stroke-width: 0.535627px; stroke-opacity: 0.05; stroke: url(&quot;#color-2&quot;); fill: url(&quot;#gradient-0-12&quot;);"/>
        <path d="M176 352c58-10 115-54 150-108-60 10-118 55-150 108z" style="opacity: 0.9; stroke-width: 0.535627px; stroke-opacity: 0.05; stroke: url(&quot;#color-2&quot;); fill: url(&quot;#gradient-0-13&quot;);"/>
      </g>
    </g>
  </g>
  <g transform="matrix(1, 0, 0, 1, -237.203041, 313.287149)" style="pointer-events: none;">
    <title>LogoWithBrandOnDark</title>
    <rect x="908.115" y="2091.97" width="377.646" height="227.763" style="stroke: rgb(0, 0, 0); fill: rgb(11, 15, 40);"/>
    <g transform="matrix(0.125, 0, 0, 0.125, 949.320097, 2186.535466)">
      <g>
        <rect width="512" height="512" rx="128" style="stroke-width: 1; fill: url(&quot;#color-3&quot;);" x="-14.562" y="-91.616"/>
        <text style="fill: url(&quot;#color-7&quot;); font-family: &quot;Space Grotesk&quot;; font-size: 336px; font-weight: 500; white-space: pre;" x="617.438" y="282.624">Driftya</text>
      </g>
      <g style="filter: url(&quot;#filter-7&quot;);" transform="matrix(1.866971, 0, 0, 1.866971, -217.836502, -313.561005)">
        <path d="M336 160c-40 8-83 38-114 70-34 35-57 78-66 118 37-6 80-30 113-65 32-34 58-77 67-123z" style="stroke-width: 0.535627px; stroke-opacity: 0.05; stroke: url(&quot;#color-2&quot;); fill: url(&quot;#gradient-0-10&quot;);"/>
        <path d="M176 352c58-10 115-54 150-108-60 10-118 55-150 108z" style="opacity: 0.9; stroke-width: 0.535627px; stroke-opacity: 0.05; stroke: url(&quot;#color-2&quot;); fill: url(&quot;#gradient-0-11&quot;);"/>
      </g>
    </g>
  </g>
  <g id="phone" filter="url(#softShadow)" transform="matrix(1, 0, 0, 1, 2617.116455, 1311.44165)" style="pointer-events: none;">
    <title>Phone</title>
    <g id="buttons" fill="var(--detail)" opacity="0.9" style="">
      <rect x="56" y="520" width="18" height="150" rx="9" style="fill: rgb(124, 124, 124);"/>
      <rect x="56" y="710" width="18" height="150" rx="9" style="fill: rgb(124, 124, 124);"/>
      <rect x="1006" y="640" width="18" height="190" rx="9" style="fill: rgb(124, 124, 124);"/>
    </g>
    <rect id="rim" x="88" y="98" width="904" height="1964" rx="138" ry="138" fill="none" stroke="var(--phone-rim)" stroke-width="10" style=""/>
    <path d="M 206 210 L 874 210 C 927.019 210 970 252.981 970 306 L 970 1854 C 970 1907.019 927.019 1950 874 1950 L 206 1950 C 152.981 1950 110 1907.019 110 1854 L 110 306 C 110 252.981 152.981 210 206 210 Z M 70 282.017 L 70 1929.997 C 70 2012.84 137.157 2079.997 220 2079.997 L 860 2079.997 C 942.843 2079.997 1010 2012.84 1010 1929.997 L 1010 282.017 C 1010 199.174 942.843 132.017 860 132.017 L 220 132.017 C 137.157 132.017 70 199.174 70 282.017 Z" id="screen-recess" style="fill: url(&quot;#gradient-4&quot;);"/>
    <g id="screen" clip-path="url(#screen-clip)" style="pointer-events: none;">
      <rect x="120" y="220" width="840" height="1720" rx="86" ry="86" fill="var(--screen-bg)"/>
      <image id="screen-image" x="120" y="220" width="840" height="1720" preserveAspectRatio="xMidYMid slice" href="phone-content-placeholder.png"/>
    </g>
    <path id="glass-highlight" d="M 170 260 C 240 220 340 220 420 220 L 295.682 1891.184 C 225.682 1931.184 139.805 1903.928 139.805 1843.928 L 170 260 Z" opacity="0.55" style="fill: rgb(132, 132, 132); fill-opacity: 0.09;"/>
    <g id="top-details" opacity="0.9">
      <rect x="420" y="165" width="240" height="24" rx="12" style=""/>
      <circle cx="720" cy="178" r="10" style=""/>
    </g>
    <rect id="chin" x="460" y="2010" width="160" height="14" rx="7" fill="var(--detail)" opacity="0.6"/>
  </g>
  <g id="Capa_1" transform="matrix(1, 0, 0, 1, -1167.717198, -1481.660567)" style="pointer-events: none;">
    <title>TiltingBottleOnWater</title>
    <g id="XMLID_13_" transform="matrix(1, 0, 0, 1, 1250.679969, 2710.076009)">
      <g>
        <path style="fill:#4D4D4D;" d="M441.232,249.095c4.14,0,7.5,3.36,7.5,7.5c0,4.15-3.36,7.5-7.5,7.5c-5.53,0-7.88,1.51-11.42,3.8 c-4.28,2.77-9.6,6.2-19.55,6.2c-9.96,0-15.28-3.43-19.56-6.2c-3.54-2.29-5.88-3.8-11.41-3.8s-7.87,1.51-11.41,3.8 c-4.28,2.77-9.6,6.2-19.55,6.2c-9.96,0-15.28-3.43-19.56-6.2c-3.34-2.16-5.62-3.62-10.51-3.78l-142.63,142.63 c-5.52,5.52-12.78,8.28-20.03,8.28s-14.5-2.76-20.02-8.28l-80.52-80.51c-5.34-5.35-8.29-12.47-8.29-20.03 c0-7.57,2.95-14.68,8.29-20.03l21.05-21.04c-1.72-0.66-3.68-1.04-6.44-1.04c-5.53,0-7.87,1.51-11.41,3.8 c-4.28,2.77-9.6,6.2-19.55,6.2s-15.28-3.43-19.55-6.2c-3.54-2.29-5.88-3.8-11.41-3.8c-4.14,0-7.5-3.35-7.5-7.5 c0-4.14,3.36-7.5,7.5-7.5c9.95,0,15.27,3.44,19.55,6.2c3.54,2.29,5.88,3.8,11.41,3.8s7.87-1.51,11.41-3.8 c4.28-2.76,9.6-6.2,19.55-6.2c8.46,0,13.57,2.49,17.54,4.93l125.13-125.12c14.19-14.19,35.04-19.74,54.41-14.47 c14.19,3.85,29.47-0.21,39.87-10.61l9.31-9.31l-1.87-1.87c-2.93-2.92-2.93-7.67,0-10.6l27.01-27.01c2.92-2.93,7.67-2.93,10.6,0 l5.58,5.58l18.3-23.74c1.32-1.71,3.31-2.77,5.46-2.9c2.15-0.15,4.26,0.65,5.79,2.18l38.85,38.86c1.53,1.52,2.32,3.63,2.19,5.78 c-0.14,2.15-1.2,4.14-2.91,5.46l-23.74,18.3l5.58,5.58c2.93,2.93,2.93,7.68,0,10.61l-27.01,27c-1.46,1.47-3.38,2.2-5.3,2.2 s-3.84-0.73-5.3-2.2l-1.87-1.87l-9.31,9.31c-10.4,10.4-14.46,25.68-10.61,39.87c5.27,19.37-0.28,40.22-14.47,54.41l-2.27,2.27 c2.46,1.1,4.47,2.39,6.28,3.56c3.55,2.29,5.89,3.8,11.42,3.8c5.52,0,7.87-1.51,11.41-3.8c4.27-2.76,9.6-6.2,19.55-6.2 c9.95,0,15.28,3.44,19.55,6.2c3.55,2.29,5.89,3.8,11.42,3.8s7.87-1.51,11.41-3.8C425.952,252.535,431.272,249.095,441.232,249.095 z M390.502,93.865l18.51-14.28l-26.79-26.79l-14.28,18.52L390.502,93.865z M374.462,131.835l16.4-16.4l-44.49-44.49l-16.4,16.4 L374.462,131.835z M347.372,144.585l9.31-9.31l-30.15-30.15l-9.31,9.31c-14.19,14.19-35.04,19.74-54.41,14.47 c-3.54-0.96-7.15-1.43-10.74-1.43c-10.78,0-21.32,4.23-29.13,12.04l-119.41,119.41c3.58-0.45,5.66-1.78,8.51-3.63 c4.28-2.76,9.6-6.2,19.55-6.2s15.27,3.44,19.55,6.2c0.8,0.52,1.54,0.99,2.27,1.42l100.96-100.95c0-0.01,0.01-0.01,0.02-0.02 c5.77-5.76,13.44-8.94,21.59-8.94c14.31,0,25.95,11.65,25.95,25.95c0,1.99-0.79,3.9-2.2,5.31l-20.49,20.49 c0.83,0.09,1.65,0.12,2.5,0.14h0.01c7.63,0,14.79-2.97,20.18-8.35c5.38-5.39,8.35-12.55,8.35-20.18c0-2.07,0.84-3.94,2.19-5.3 c1.36-1.36,3.24-2.2,5.31-2.2c4.14,0,7.5,3.36,7.5,7.5c0,11.62-4.52,22.54-12.72,30.76c-0.01,0.01-0.02,0.02-0.03,0.03 l-49.02,49.02c5.1,1.2,8.53,3.42,11.47,5.32c3.55,2.29,5.89,3.8,11.42,3.8s7.87-1.51,11.41-3.8c3.37-2.17,7.4-4.76,13.82-5.76 l10.66-10.67c10.4-10.4,14.47-25.68,10.61-39.87C327.632,179.625,333.182,158.775,347.372,144.585z M165.022,396.135 l122.05-122.05c-0.22,0-0.44,0.01-0.67,0.01c-9.96,0-15.28-3.43-19.55-6.2c-3.55-2.29-5.89-3.8-11.42-3.8 c-3.39,0-5.57,0.57-7.58,1.54l-80.48,80.48c-8.22,8.22-19.14,12.75-30.76,12.75c-0.02,0-0.04,0-0.07,0 c-7.17,0-14.11-2.1-20.06-6.07c-10.16-6.76-16.22-18.07-16.22-30.26c-0.01-8.16,3.17-15.84,8.94-21.61l33.33-33.33 c-3.29-2.12-5.66-3.5-10.94-3.5c-5.53,0-7.87,1.51-11.41,3.8c-4.28,2.77-9.6,6.2-19.55,6.2c-4.33,0-7.78-0.65-10.66-1.61 l-24.3,24.3c-2.51,2.52-3.9,5.86-3.9,9.42s1.39,6.9,3.9,9.42l80.51,80.51c2.52,2.52,5.86,3.9,9.42,3.9 S162.512,398.655,165.022,396.135z M265.452,191.125l21.13-21.12c-1.23-4.71-5.51-8.2-10.6-8.2c-4.16,0-8.06,1.62-11,4.56 s-4.56,6.85-4.56,11C260.422,182.475,262.242,187.325,265.452,191.125z M238.782,253.495l39.93-39.93 c-6.1-0.5-11.95-2.52-17.07-5.94c-7.97-5.31-13.4-13.42-15.38-22.55l-67.24,67.24c3.54-1.77,8.04-3.22,14.5-3.22 c9.95,0,15.27,3.44,19.55,6.2c3.54,2.29,5.88,3.8,11.4,3.8c5.53,0,7.87-1.51,11.41-3.8 C236.792,254.715,237.752,254.095,238.782,253.495z M156.762,335.515l61.87-61.87c-6.36-1.01-10.36-3.58-13.7-5.75 c-3.55-2.29-5.89-3.8-11.41-3.8c-5.53,0-7.87,1.51-11.42,3.8c-4.27,2.77-9.59,6.2-19.55,6.2c-1.81,0-3.46-0.11-4.99-0.32 l-37.75,37.76c-2.94,2.93-4.55,6.84-4.55,11c0,7.16,3.56,13.8,9.53,17.78c3.49,2.32,7.55,3.55,11.77,3.55c0.01,0,0.02,0,0.03,0 C144.222,343.865,151.382,340.895,156.762,335.515z"/>
        <polygon style="fill:#E0974F;" points="409.012,79.585 390.502,93.865 367.942,71.315 382.222,52.795 &#9;&#9;"/>
        <rect x="348.821" y="69.931" transform="matrix(0.7071 -0.7071 0.7071 0.7071 33.87 284.55)" style="fill: rgb(79, 124, 255);" width="23.193" height="62.918"/>
        <path style="fill: rgb(94, 230, 255);" d="M356.682,135.275l-9.31,9.31c-14.19,14.19-19.74,35.04-14.47,54.41 c3.86,14.19-0.21,29.47-10.61,39.87l-10.66,10.67c-6.42,1-10.45,3.59-13.82,5.76c-3.54,2.29-5.88,3.8-11.41,3.8 s-7.87-1.51-11.42-3.8c-2.94-1.9-6.37-4.12-11.47-5.32l49.02-49.02c0.01-0.01,0.02-0.02,0.03-0.03 c8.2-8.22,12.72-19.14,12.72-30.76c0-4.14-3.36-7.5-7.5-7.5c-2.07,0-3.95,0.84-5.31,2.2c-1.35,1.36-2.19,3.23-2.19,5.3 c0,7.63-2.97,14.79-8.35,20.18c-5.39,5.38-12.55,8.35-20.18,8.35h-0.01c-0.85-0.02-1.67-0.05-2.5-0.14l20.49-20.49 c1.41-1.41,2.2-3.32,2.2-5.31c0-14.3-11.64-25.95-25.95-25.95c-8.15,0-15.82,3.18-21.59,8.94c-0.01,0.01-0.02,0.01-0.02,0.02 l-100.96,100.95c-0.73-0.43-1.47-0.9-2.27-1.42c-4.28-2.76-9.6-6.2-19.55-6.2s-15.27,3.44-19.55,6.2 c-2.85,1.85-4.93,3.18-8.51,3.63l119.41-119.41c7.81-7.81,18.35-12.04,29.13-12.04c3.59,0,7.2,0.47,10.74,1.43 c19.37,5.27,40.22-0.28,54.41-14.47l9.31-9.31L356.682,135.275z"/>
        <path style="fill: rgb(79, 124, 255);" d="M287.072,274.085l-122.05,122.05c-2.51,2.52-5.86,3.9-9.42,3.9s-6.9-1.38-9.42-3.9l-80.51-80.51 c-2.51-2.52-3.9-5.86-3.9-9.42s1.39-6.9,3.9-9.42l24.3-24.3c2.88,0.96,6.33,1.61,10.66,1.61c9.95,0,15.27-3.43,19.55-6.2 c3.54-2.29,5.88-3.8,11.41-3.8c5.28,0,7.65,1.38,10.94,3.5l-33.33,33.33c-5.77,5.77-8.95,13.45-8.94,21.61 c0,12.19,6.06,23.5,16.22,30.26c5.95,3.97,12.89,6.07,20.06,6.07c0.03,0,0.05,0,0.07,0c11.62,0,22.54-4.53,30.76-12.75 l80.48-80.48c2.01-0.97,4.19-1.54,7.58-1.54c5.53,0,7.87,1.51,11.42,3.8c4.27,2.77,9.59,6.2,19.55,6.2 C286.632,274.095,286.852,274.085,287.072,274.085z"/>
        <path style="fill:#C6B54F;" d="M286.582,170.005l-21.13,21.12c-3.21-3.8-5.03-8.65-5.03-13.76c0-4.15,1.62-8.06,4.56-11 s6.84-4.56,11-4.56C281.072,161.805,285.352,165.295,286.582,170.005z"/>
        <path style="fill:#E5D665;" d="M278.712,213.565l-39.93,39.93c-1.03,0.6-1.99,1.22-2.9,1.8c-3.54,2.29-5.88,3.8-11.41,3.8 c-5.52,0-7.86-1.51-11.4-3.8c-4.28-2.76-9.6-6.2-19.55-6.2c-6.46,0-10.96,1.45-14.5,3.22l67.24-67.24 c1.98,9.13,7.41,17.24,15.38,22.55C266.762,211.045,272.612,213.065,278.712,213.565z"/>
        <path style="fill:#C6B54F;" d="M218.632,273.645l-61.87,61.87c-5.38,5.38-12.54,8.35-20.17,8.35c-0.01,0-0.02,0-0.03,0 c-4.22,0-8.28-1.23-11.77-3.55c-5.97-3.98-9.53-10.62-9.53-17.78c0-4.16,1.61-8.07,4.55-11l37.75-37.76 c1.53,0.21,3.18,0.32,4.99,0.32c9.96,0,15.28-3.43,19.55-6.2c3.55-2.29,5.89-3.8,11.42-3.8c5.52,0,7.86,1.51,11.41,3.8 C208.272,270.065,212.272,272.635,218.632,273.645z"/>
      </g>
      <g/>
    </g>
  </g>
  <g id="svg-1" transform="matrix(1, 0, 0, 1, -72.742975, -99.543155)" style="pointer-events: none;">
    <title>BottleStanding</title>
    <g id="group-1" style="" transform="matrix(0.707107, -0.707107, 0.707107, 0.707107, 518.899185, 1585.910448)">
      <g>
        <rect x="530.924" y="1071.47" width="143.695" height="228.016" style="fill: rgb(94, 230, 255);" transform="matrix(0.707107, 0.707107, -0.707107, 0.707107, 597.905413, -989.365325)"/>
        <path style="fill: rgb(77, 77, 77);" d="M 332.902 249.465 L 175.632 406.745 C 170.112 412.265 162.852 415.025 155.602 415.025 C 148.352 415.025 141.102 412.265 135.582 406.745 L 55.062 326.235 C 49.722 320.885 46.772 313.765 46.772 306.205 C 46.772 298.635 49.722 291.525 55.062 286.175 L 75.25 265.997 C 75.863 265.382 91 250.239 88.615 252.623 L 212.343 128.905 C 226.533 114.715 247.383 109.165 266.753 114.435 C 280.943 118.285 296.223 114.225 306.623 103.825 L 315.933 94.515 L 314.063 92.645 C 311.133 89.725 311.133 84.975 314.063 82.045 L 341.073 55.035 C 343.993 52.105 348.743 52.105 351.673 55.035 L 357.253 60.615 L 375.553 36.875 C 376.873 35.165 378.863 34.105 381.013 33.975 C 383.163 33.825 385.273 34.625 386.803 36.155 L 425.653 75.015 C 427.183 76.535 427.973 78.645 427.843 80.795 C 427.703 82.945 426.643 84.935 424.933 86.255 L 401.193 104.555 L 406.773 110.135 C 409.703 113.065 409.703 117.815 406.773 120.745 L 379.763 147.745 C 378.303 149.215 376.383 149.945 374.463 149.945 C 372.543 149.945 370.623 149.215 369.163 147.745 L 367.293 145.875 L 357.983 155.185 C 347.583 165.585 343.523 180.865 347.373 195.055 C 352.643 214.425 347.093 235.275 332.903 249.465 L 332.902 249.465 Z M 390.502 93.865 L 409.012 79.585 L 382.222 52.795 L 367.942 71.315 L 390.502 93.865 Z M 374.462 131.835 L 390.862 115.435 L 346.372 70.945 L 329.972 87.345 L 374.462 131.835 Z M 254.372 155.765 C 254.372 155.755 254.382 155.755 254.392 155.745 C 260.162 149.985 267.832 146.805 275.982 146.805 C 290.292 146.805 301.932 158.455 301.932 172.755 C 301.932 174.745 301.142 176.655 299.732 178.065 L 279.242 198.555 C 280.072 198.645 280.892 198.675 281.742 198.695 L 281.752 198.695 C 289.382 198.695 296.542 195.725 301.932 190.345 C 307.312 184.955 310.282 177.795 310.282 170.165 C 310.282 168.095 311.122 166.225 312.472 164.865 C 313.832 163.505 315.712 162.665 317.782 162.665 C 321.922 162.665 325.282 166.025 325.282 170.165 C 325.282 181.785 320.762 192.705 312.562 200.925 C 312.552 200.935 312.542 200.945 312.532 200.955 L 263.512 249.975 C 252.714 260.773 245.477 268.012 245.477 268.012 L 167.371 346.118 C 159.151 354.338 148.231 358.868 136.611 358.868 C 136.591 358.868 136.571 358.868 136.541 358.868 C 129.371 358.868 122.431 356.768 116.481 352.798 C 106.321 346.038 100.261 334.728 100.261 322.538 C 100.251 314.378 103.431 306.698 109.201 300.928 L 254.372 155.765 Z M 252.07 127.476 C 241.29 127.476 89.971 272.488 89.971 272.488 M 89.971 272.488 L 65.671 296.788 C 63.161 299.308 61.771 302.648 61.771 306.208 C 61.771 309.768 63.161 313.108 65.671 315.628 L 146.181 396.138 C 148.701 398.658 152.041 400.038 155.601 400.038 C 159.161 400.038 162.511 398.658 165.021 396.138 L 287.071 274.088 C 286.851 274.088 322.29 238.866 322.29 238.866 C 332.69 228.466 336.76 213.186 332.9 198.996 C 327.63 179.626 333.18 158.776 347.37 144.586 L 356.68 135.276 L 326.53 105.126 L 317.22 114.436 C 303.03 128.626 282.18 134.176 262.81 128.906 C 259.27 127.946 255.66 127.476 252.07 127.476 M 265.452 191.125 L 286.582 170.005 C 285.352 165.295 281.072 161.805 275.982 161.805 C 271.822 161.805 267.922 163.425 264.982 166.365 C 262.042 169.305 260.422 173.215 260.422 177.365 C 260.422 182.475 262.242 187.325 265.452 191.125 Z M 238.782 253.495 L 278.712 213.565 C 272.612 213.065 266.762 211.045 261.642 207.625 C 253.672 202.315 248.242 194.205 246.262 185.075 C 246.262 185.075 208.792 252.535 213.072 255.295 C 216.612 257.585 218.952 259.095 224.472 259.095 C 230.002 259.095 232.342 257.585 235.882 255.295 C 236.792 254.715 237.752 254.095 238.782 253.495 Z M 156.762 335.515 L 218.632 273.645 C 212.272 272.635 208.272 270.065 204.932 267.895 C 201.382 265.605 199.042 264.095 193.522 264.095 C 187.992 264.095 185.652 265.605 182.102 267.895 C 177.832 270.665 172.512 274.095 162.552 274.095 C 160.742 274.095 159.092 273.985 157.562 273.775 L 119.812 311.535 C 116.872 314.465 115.262 318.375 115.262 322.535 C 115.262 329.695 118.822 336.335 124.792 340.315 C 128.282 342.635 132.342 343.865 136.562 343.865 C 136.572 343.865 136.582 343.865 136.592 343.865 C 144.222 343.865 151.382 340.895 156.762 335.515 Z"/>
        <path style="fill: rgb(77, 77, 77); visibility: hidden;" d="M 274.981 255.295 C 278.531 257.585 280.871 259.095 286.401 259.095 C 288.797 259.095 290.594 258.812 292.149 258.304 C 292.421 259.37 292.525 260.354 292.411 261.152 C 292.138 263.065 289.681 265.29 288.471 266.769 C 286.441 269.25 284.087 271.714 281.454 273.788 C 280.951 273.722 280.462 273.647 279.987 273.562 C 273.951 272.49 270.099 270.003 266.852 267.897 C 265.487 267.016 264.3 266.251 263.043 265.643 C 264.237 260.519 266.831 256.165 271.11 252.929 C 272.532 253.711 273.797 254.529 274.982 255.295 L 274.981 255.295 Z"/>
        <path style="fill: rgb(77, 77, 77); visibility: hidden;" d="M 88.615 252.623 L 88.251 252.987 C 88.401 252.837 88.521 252.717 88.615 252.623 Z"/>
        <path style="fill: rgb(77, 77, 77); visibility: hidden;" d="M 88.25 252.987 L 87.212 254.025 C 87.65 253.587 87.993 253.244 88.25 252.987 Z"/>
        <polygon style="fill: rgb(224, 151, 79);" points="409.012,79.585 390.502,93.865 367.942,71.315 382.222,52.795 &#9;&#9;"/>
        <rect x="348.821" y="69.931" transform="matrix(0.7071 -0.7071 0.7071 0.7071 33.87 284.55)" style="fill: rgb(79, 124, 255);" width="23.193" height="62.918"/>
        <path style="fill: rgb(94, 230, 255);" d="M 356.682 135.275 L 347.372 144.585 C 333.182 158.775 327.632 179.625 332.902 198.995 C 336.762 213.185 332.692 228.465 322.292 238.865 L 311.632 249.535 C 305.212 250.535 301.182 253.125 297.812 255.295 C 294.272 257.585 291.932 259.095 286.402 259.095 C 280.872 259.095 278.532 257.585 274.982 255.295 C 272.82 253.898 270.394 252.327 267.233 251.117 L 268.196 249.74 L 267.233 251.117 C 266.32 250.768 265.346 250.448 264.299 250.172 C 264.041 250.104 263.779 250.038 263.512 249.975 C 263.522 249.965 312.552 200.935 312.562 200.925 C 320.762 192.705 325.282 181.785 325.282 170.165 C 325.282 166.025 321.922 162.665 317.782 162.665 C 315.712 162.665 313.832 163.505 312.472 164.865 C 311.122 166.225 310.282 168.095 310.282 170.165 C 310.282 177.795 307.312 184.955 301.932 190.345 C 296.542 195.725 289.382 198.695 281.752 198.695 L 281.742 198.695 C 280.892 198.675 280.072 198.645 279.242 198.555 L 299.732 178.065 C 301.142 176.655 301.932 174.745 301.932 172.755 C 301.932 158.455 290.292 146.805 275.982 146.805 C 267.832 146.805 260.162 149.985 254.392 155.745 C 254.382 155.755 254.372 155.755 254.372 155.765 L 161.198 248.93 L 153.412 256.715 C 152.682 256.285 151.942 255.815 151.142 255.295 C 148.943 253.877 146.47 252.28 143.235 251.061 L 126.367 236.091 L 222.942 139.516 C 230.752 131.706 241.292 127.476 252.072 127.476 C 255.662 127.476 259.272 127.946 262.812 128.906 C 282.182 134.176 303.032 128.626 317.222 114.436 L 326.532 105.126 L 356.682 135.275 Z"/>
        <path style="fill: rgb(94, 230, 255);" d="M 131.592 249.095 C 121.642 249.095 116.322 252.535 112.042 255.295 C 109.793 256.755 108.023 257.891 105.617 258.527 L 104.014 258.583 L 105.541 257.02 L 105.541 257.02 L 104.014 258.583 L 103.87 258.588 L 129.988 232.47 L 143.235 251.061 C 140.174 249.908 136.43 249.095 131.592 249.095 Z"/>
        <path style="fill: rgb(94, 230, 255);" d="M 103.532 258.924 C 103.532 258.924 103.533 258.924 103.533 258.924 L 103.532 258.925 L 103.532 258.924 Z"/>
        <path style="fill: rgb(94, 230, 255);" d="M 105.617 258.526 C 105.023 258.683 104.39 258.809 103.701 258.902 L 104.014 258.581 L 105.617 258.526 Z"/>
        <path style="fill: rgb(94, 230, 255);" d="M 103.87 258.587 L 104.015 258.582 L 103.702 258.903 C 103.683 258.906 103.665 258.908 103.646 258.911 C 103.609 258.916 103.572 258.921 103.534 258.925 L 103.87 258.587 Z"/>
        <path style="fill: rgb(79, 124, 255); visibility: hidden;" d="M 287.072 274.085 L 165.022 396.135 C 162.512 398.655 159.162 400.035 155.602 400.035 C 152.042 400.035 148.702 398.655 146.182 396.135 L 65.672 315.625 C 63.162 313.105 61.772 309.765 61.772 306.205 C 61.772 302.645 63.162 299.305 65.672 296.785 L 89.972 272.485 C 92.852 273.445 96.302 274.095 100.632 274.095 C 110.582 274.095 115.902 270.665 120.182 267.895 C 123.722 265.605 126.062 264.095 131.592 264.095 C 136.872 264.095 139.242 265.475 142.532 267.595 L 109.202 300.925 C 103.432 306.695 100.252 314.375 100.262 322.535 C 100.262 334.725 106.322 346.035 116.482 352.795 C 122.432 356.765 129.372 358.865 136.542 358.865 C 136.572 358.865 136.592 358.865 136.612 358.865 C 148.232 358.865 159.152 354.335 167.372 346.115 L 247.852 265.635 C 249.592 264.795 251.46 264.255 254.13 264.125 C 254.544 264.105 254.977 264.095 255.432 264.095 C 256.398 264.095 257.267 264.141 258.062 264.229 L 253.798 270.327 L 258.062 264.229 C 261.816 264.646 263.922 266.005 266.852 267.895 C 271.122 270.665 276.442 274.095 286.402 274.095 C 286.632 274.095 286.852 274.085 287.072 274.085 Z"/>
        <path style="fill: rgb(198, 181, 79);" d="M286.582,170.005l-21.13,21.12c-3.21-3.8-5.03-8.65-5.03-13.76c0-4.15,1.62-8.06,4.56-11 s6.84-4.56,11-4.56C281.072,161.805,285.352,165.295,286.582,170.005z"/>
        <path style="fill: rgb(229, 214, 101);" d="M278.712,213.565l-39.93,39.93c-1.03,0.6-1.99,1.22-2.9,1.8c-3.54,2.29-5.88,3.8-11.41,3.8 c-5.52,0-7.86-1.51-11.4-3.8c-4.28-2.76-9.6-6.2-19.55-6.2c-6.46,0-10.96,1.45-14.5,3.22l67.24-67.24 c1.98,9.13,7.41,17.24,15.38,22.55C266.762,211.045,272.612,213.065,278.712,213.565z"/>
        <path style="fill: rgb(198, 181, 79);" d="M218.632,273.645l-61.87,61.87c-5.38,5.38-12.54,8.35-20.17,8.35c-0.01,0-0.02,0-0.03,0 c-4.22,0-8.28-1.23-11.77-3.55c-5.97-3.98-9.53-10.62-9.53-17.78c0-4.16,1.61-8.07,4.55-11l37.75-37.76 c1.53,0.21,3.18,0.32,4.99,0.32c9.96,0,15.28-3.43,19.55-6.2c3.55-2.29,5.89-3.8,11.42-3.8c5.52,0,7.86,1.51,11.41,3.8 C208.272,270.065,212.272,272.635,218.632,273.645z"/>
      </g>
      <g/>
    </g>
  </g>
  <g id="svg-2" transform="matrix(0.568339, 0, 0, 0.568339, -146.746948, 1954.358887)" style="pointer-events: none;">
    <title>Island</title>
    <g transform="matrix(1.781821, 0, 0, 1.781821, 632.489258, 2011.478027)">
      <g id="XMLID_27_">
        <g>
          <path style="fill:#E0974F;" d="M342.262,187.855c0,1.17-0.08,2.34-0.19,3.5h-17.58c-8.55,0-15.5,6.95-15.5,15.5 c0,0.27-0.23,0.5-0.5,0.5h-12c-6.27,0-11.9,2.71-15.83,6.99c-7.24-6.81-11.4-16.27-11.4-26.49c0-20.13,16.37-36.5,36.5-36.5 C325.882,151.355,342.262,167.725,342.262,187.855z"/>
          <path style="fill:#5B79CE;" d="M400.492,206.355c3.58,0,6.5,2.91,6.5,6.5c0,3.58-2.92,6.5-6.5,6.5h-12 c-8.55,0-15.5,6.95-15.5,15.5c0,0.27-0.23,0.5-0.5,0.5h-76c-3.59,0-6.5-2.92-6.5-6.5c0-3.59,2.91-6.5,6.5-6.5h12 c8.54,0,15.5-6.96,15.5-15.5c0-0.28,0.22-0.5,0.5-0.5H400.492z"/>
          <path style="fill:#4D4D4D;" d="M441.232,360.565c4.14,0,7.5,3.36,7.5,7.5c0,4.14-3.36,7.5-7.5,7.5c-5.53,0-7.88,1.51-11.42,3.8 c-4.28,2.76-9.6,6.2-19.55,6.2c-9.96,0-15.28-3.44-19.56-6.2c-3.54-2.29-5.88-3.8-11.41-3.8s-7.87,1.51-11.41,3.8 c-4.28,2.76-9.6,6.2-19.56,6.2c-9.95,0-15.27-3.44-19.55-6.2c-3.54-2.29-5.88-3.8-11.41-3.8s-7.87,1.51-11.41,3.8 c-4.28,2.76-9.6,6.2-19.55,6.2c-9.95,0-15.28-3.44-19.55-6.2c-3.55-2.29-5.89-3.8-11.42-3.8c-5.52,0-7.86,1.51-11.41,3.8 c-4.27,2.76-9.59,6.2-19.55,6.2c-9.95,0-15.27-3.44-19.54-6.2c-3.55-2.29-5.89-3.8-11.41-3.8c-5.53,0-7.87,1.51-11.42,3.8 c-4.27,2.76-9.6,6.2-19.55,6.2s-15.27-3.44-19.55-6.2c-3.54-2.29-5.88-3.8-11.41-3.8c-5.53,0-7.87,1.51-11.41,3.8 c-4.28,2.76-9.6,6.2-19.55,6.2s-15.27-3.44-19.55-6.2c-3.54-2.29-5.88-3.8-11.41-3.8s-7.87,1.51-11.41,3.8 c-4.28,2.76-9.6,6.2-19.55,6.2s-15.27-3.44-19.55-6.2c-3.54-2.29-5.88-3.8-11.41-3.8c-4.14,0-7.5-3.36-7.5-7.5 c0-4.14,3.36-7.5,7.5-7.5c9.95,0,15.27,3.44,19.55,6.2c3.54,2.29,5.88,3.8,11.41,3.8s7.87-1.51,11.41-3.8 c4.27-2.76,9.6-6.2,19.55-6.2s15.27,3.44,19.55,6.2c3.3,2.13,5.56,3.59,10.32,3.78c20.37-24.87,47.05-42.7,76.88-51.94 c4.95-61.07-13.43-108.8-23.4-129.59c-0.97,1.02-1.76,1.65-2.24,1.98c-1.27,0.89-2.77,1.36-4.29,1.36c-0.45,0-0.9-0.04-1.34-0.12 c-15.57-2.83-27.07-13.68-33.73-21.82l-29.81,43.37c-1.2,1.76-3.11,2.92-5.23,3.19c-0.31,0.04-0.63,0.06-0.95,0.06 c-1.79,0-3.54-0.64-4.91-1.84c-14.5-12.58-22.9-42.82-19.55-70.33c2.48-20.36,11.06-35.27,24.18-41.98 c2.53-1.29,5.11-2.34,7.74-3.17c8.92-20.96,29.57-34.78,52.62-34.78c7.07,0,13.92,1.28,20.43,3.78c2.42-1.32,4.98-2.45,7.67-3.37 c13.94-4.78,30.63-0.6,46.99,11.76c22.12,16.7,38.03,43.75,37.02,62.92c-0.11,2.13-1.13,4.12-2.8,5.46 c-1.34,1.07-3,1.64-4.69,1.64c-0.41,0-0.83-0.03-1.24-0.1l-72.55-12.15c0.01,1.59-0.01,3.13-0.04,4.63 c40.8,48.15,63.92,108.86,65.58,172.03c45.94,2.06,88.28,23.26,117.55,59c4.75-0.19,7.01-1.64,10.31-3.77 c4.27-2.76,9.6-6.2,19.55-6.2c9.95,0,15.28,3.44,19.55,6.2c3.55,2.29,5.89,3.8,11.42,3.8s7.87-1.51,11.41-3.8 C425.952,364.005,431.272,360.565,441.232,360.565z M317.362,360.565c0.45,0,0.87,0.01,1.3,0.03 c-26.13-22.02-59.17-34.24-94.17-34.24s-68.04,12.22-94.17,34.24c0.42-0.02,0.83-0.03,1.27-0.03c9.95,0,15.27,3.44,19.55,6.2 c3.54,2.29,5.88,3.8,11.41,3.8s7.87-1.51,11.41-3.8c4.28-2.76,9.6-6.2,19.56-6.2c9.95,0,15.27,3.44,19.54,6.2 c3.55,2.29,5.89,3.8,11.41,3.8c5.53,0,7.87-1.51,11.41-3.8c4.28-2.76,9.6-6.2,19.55-6.2c9.96,0,15.28,3.44,19.56,6.2 c3.54,2.29,5.88,3.8,11.41,3.8s7.87-1.51,11.41-3.8C302.092,364.005,307.412,360.565,317.362,360.565z M143.362,115.825 l88.25,14.77c-3.54-13.56-15.48-30.52-30.05-41.52c-7.1-5.36-20.85-13.73-33.09-9.54 C149.202,86.125,144.502,105.775,143.362,115.825z M216.872,311.545c-1.51-54.5-19.9-107.07-52.46-150.4 c-0.78,4.54-1.74,8.44-2.79,11.77c7.6,13.48,34.77,67.4,30.12,141.75C199.962,312.975,208.352,311.935,216.872,311.545z M143.762,176.425c2.88-4.71,7.99-16.97,7.56-44.06l-12.34-2.07l-18.63,27.12C124.252,162.865,132.532,172.695,143.762,176.425z M141.792,80.405c-2.06-0.31-4.16-0.47-6.28-0.47c-13.89,0-26.6,6.8-34.38,17.72c6.71,0.54,13.53,2.43,20.35,5.7 c2.93,1.41,5.6,2.95,7.97,4.48c0.54-2.76,1.29-5.76,2.31-8.85C134.142,91.815,137.522,85.595,141.792,80.405z M74.862,197.135 l50.66-73.73c-2.7-2.07-6.45-4.61-10.92-6.71c-5.95-2.8-11.75-4.21-17.34-4.21c-5.28,0-10.39,1.26-15.28,3.76 c-11.52,5.89-15.05,21.6-16.12,30.44C63.652,164.795,67.562,185.175,74.862,197.135z"/>
          <path style="fill:#4D4D4D;" d="M400.492,191.355c11.85,0,21.5,9.64,21.5,21.5c0,11.85-9.65,21.5-21.5,21.5h-12 c-0.28,0-0.5,0.22-0.5,0.5c0,8.54-6.96,15.5-15.5,15.5h-76c-11.76,0-21.34-9.5-21.49-21.23c-13.06-9.69-20.74-24.78-20.74-41.27 c0-28.4,23.1-51.5,51.5-51.5c28.39,0,51.5,23.1,51.5,51.5c0,1.17-0.05,2.33-0.13,3.5H400.492z M406.992,212.855 c0-3.59-2.92-6.5-6.5-6.5h-76c-0.28,0-0.5,0.22-0.5,0.5c0,8.54-6.96,15.5-15.5,15.5h-12c-3.59,0-6.5,2.91-6.5,6.5 c0,3.58,2.91,6.5,6.5,6.5h76c0.27,0,0.5-0.23,0.5-0.5c0-8.55,6.95-15.5,15.5-15.5h12 C404.072,219.355,406.992,216.435,406.992,212.855z M342.072,191.355c0.11-1.16,0.19-2.33,0.19-3.5c0-20.13-16.38-36.5-36.5-36.5 c-20.13,0-36.5,16.37-36.5,36.5c0,10.22,4.16,19.68,11.4,26.49c3.93-4.28,9.56-6.99,15.83-6.99h12c0.27,0,0.5-0.23,0.5-0.5 c0-8.55,6.95-15.5,15.5-15.5H342.072z"/>
          <path style="fill:#E5D665;" d="M318.662,360.595c-0.43-0.02-0.85-0.03-1.3-0.03c-9.95,0-15.27,3.44-19.55,6.2 c-3.54,2.29-5.88,3.8-11.41,3.8s-7.87-1.51-11.41-3.8c-4.28-2.76-9.6-6.2-19.56-6.2c-9.95,0-15.27,3.44-19.55,6.2 c-3.54,2.29-5.88,3.8-11.41,3.8c-5.52,0-7.86-1.51-11.41-3.8c-4.27-2.76-9.59-6.2-19.54-6.2c-9.96,0-15.28,3.44-19.56,6.2 c-3.54,2.29-5.88,3.8-11.41,3.8s-7.87-1.51-11.41-3.8c-4.28-2.76-9.6-6.2-19.55-6.2c-0.44,0-0.85,0.01-1.27,0.03 c26.13-22.02,59.17-34.24,94.17-34.24S292.532,338.575,318.662,360.595z"/>
          <path style="fill:#77CE6F;" d="M231.612,130.595l-88.25-14.77c1.14-10.05,5.84-29.7,25.11-36.29 c12.24-4.19,25.99,4.18,33.09,9.54C216.132,100.075,228.072,117.035,231.612,130.595z"/>
          <path style="fill:#E0974F;" d="M164.412,161.145c32.56,43.33,50.95,95.9,52.46,150.4c-8.52,0.39-16.91,1.43-25.13,3.12 c4.65-74.35-22.52-128.27-30.12-141.75C162.672,169.585,163.632,165.685,164.412,161.145z"/>
          <path style="fill:#77CE6F;" d="M151.322,132.365c0.43,27.09-4.68,39.35-7.56,44.06c-11.23-3.73-19.51-13.56-23.41-19.01 l18.63-27.12L151.322,132.365z"/>
          <path style="fill:#6BB763;" d="M135.512,79.935c2.12,0,4.22,0.16,6.28,0.47c-4.27,5.19-7.65,11.41-10.03,18.58 c-1.02,3.09-1.77,6.09-2.31,8.85c-2.37-1.53-5.04-3.07-7.97-4.48c-6.82-3.27-13.64-5.16-20.35-5.7 C108.912,86.735,121.622,79.935,135.512,79.935z"/>
          <path style="fill:#77CE6F;" d="M125.522,123.405l-50.66,73.73c-7.3-11.96-11.21-32.34-9-50.45c1.07-8.84,4.6-24.55,16.12-30.44 c4.89-2.5,10-3.76,15.28-3.76c5.59,0,11.39,1.41,17.34,4.21C119.072,118.795,122.822,121.335,125.522,123.405z"/>
        </g>
        <g/>
      </g>
    </g>
  </g>
  <g id="_x36_" style="transform-origin: 3125.68px 2930px;" transform="matrix(-0.285048, 0, 0, -0.285048, -1355.583374, 377.228546)">
    <title>FloatingIsland</title>
    <g transform="matrix(2.885503, 0, 0, 2.885503, 2386.993652, 2502.599854)" id="object-23">
      <linearGradient id="SVGID_1_" gradientUnits="userSpaceOnUse" x1="0" y1="187.2422" x2="281.8787" y2="187.2422">
        <stop offset="0" style="stop-color:#9A8754"/>
        <stop offset="1" style="stop-color:#8A6537"/>
      </linearGradient>
      <polygon style="fill: url(&quot;#SVGID_1_&quot;); stroke: rgb(186, 218, 85); stroke-width: 0px;" points="281.879,296.242 0,296.242 7.151,285.151 75.152,180 109.515,126.848 140.97,78.242 &#10;&#9;&#9;205.394,177.939 206.727,180 &#9;"/>
      <path style="fill: none; stroke-miterlimit: 10; stroke: rgb(186, 218, 85); stroke-width: 0px;" d="M51.185,182.025"/>
      <polygon style="stroke: rgb(186, 218, 85); stroke-width: 0px; fill: url(&quot;#color-9&quot;);" points="181.92,185.441 203.347,199.571 205.702,189.478 140.944,89.334 78.512,186.063 &#10;&#9;&#9;110.807,166.188 126.645,183.578 149.624,164.946 &#9;"/>
      <polygon style="stroke: url(&quot;#color-8&quot;); stroke-width: 15.8053px; fill: none;" points="281.877 296.242 0.002 296.242 7.152 285.151 75.15 180 109.513 126.848 140.968 78.242 205.392 177.939 206.725 180"/>
      <linearGradient id="SVGID_2_" gradientUnits="userSpaceOnUse" x1="128.9091" y1="148.1515" x2="512" y2="148.1515">
        <stop offset="0" style="stop-color:#9A8754"/>
        <stop offset="1" style="stop-color:#8A6537"/>
      </linearGradient>
      <ellipse style="stroke: url(&quot;#color-8&quot;); stroke-width: 15.805; fill: url(&quot;#color-9&quot;);" transform="matrix(-1, 0, 0, -1, 0, 0)" cx="-190.78" cy="-300.98" rx="39.757" ry="39.757"/>
      <polygon style="fill: url(&quot;#SVGID_2_&quot;); stroke: rgb(186, 218, 85); stroke-width: 0px;" points="512,296.242 128.909,296.242 173.939,226.545 194.969,194.061 201.818,183.455 &#10;&#9;&#9;205.394,177.939 231.03,138.242 284.121,56.182 312.485,12.424 320.485,0.061 357.758,57.697 357.878,57.818 409.879,138.242 &#9;"/>
      <path style="stroke: rgb(186, 218, 85); stroke-width: 0px; fill: url(&quot;#color-9&quot;);" d="M299.378,107.822c0,0,24.301,43.663,24.301,41.131c0-2.532,28.724-54.499,28.724-54.499 l43.475,30.743L320.92,11.186l-67.577,105.161l20.961-11.645l0.932,31.209L299.378,107.822z"/>
      <polygon style="fill: none; stroke: url(&quot;#color-8&quot;); stroke-width: 15.8053px;" points="512 296.242 128.909 296.242 173.939 226.545 194.969 194.061 201.818 183.455 205.394 177.939 231.03 138.242 284.121 56.182 312.485 12.424 320.485 0.061 357.758 57.697 357.878 57.818 409.879 138.242"/>
      <rect x="-391.18" y="-475.01" width="33.718" height="177.655" style="fill: url(&quot;#color-11&quot;); stroke: url(&quot;#color-8&quot;); stroke-width: 15.8053px;" transform="matrix(-1, 0, 0, -1, 0, 0)"/>
      <ellipse style="stroke: url(&quot;#color-8&quot;); stroke-width: 15.8053px; fill: url(&quot;#color-10&quot;);" transform="matrix(-1, 0, 0, -1, 0, 0)" cx="-374.06" cy="-516.5" rx="73.345" ry="73.345"/>
      <ellipse style="stroke: url(&quot;#color-8&quot;); stroke-width: 15.805; fill: url(&quot;#color-9&quot;);" cx="-336.74" cy="-549.7" rx="52.719" ry="52.719" transform="matrix(-1, 0, 0, -1, 0, 0)"/>
      <g>
        <path style="fill: rgb(77, 77, 77); stroke-width: 1.013; transform-box: fill-box; transform-origin: 50% 50%;" d="M 166.877 459.622 C 181.468 459.622 193.344 471.499 193.344 486.089 C 193.344 500.679 181.468 512.556 166.877 512.556 L 152.093 512.556 C 151.754 512.556 151.483 512.836 151.483 513.19 C 151.483 523.694 142.913 532.265 132.398 532.265 L 38.83 532.265 C 24.351 532.265 12.558 520.582 12.364 506.123 C -3.71 494.185 -13.171 475.619 -13.171 455.304 C -13.171 420.35 15.268 391.911 50.232 391.911 C 85.186 391.911 113.649 420.35 113.649 455.304 C 113.649 456.753 113.59 458.173 113.49 459.622 L 166.877 459.622 Z M 174.876 486.089 C 174.876 481.674 171.279 478.101 166.877 478.101 L 73.296 478.101 C 72.956 478.101 72.689 478.357 72.689 478.707 C 72.689 489.225 64.119 497.785 53.601 497.785 L 38.83 497.785 C 34.405 497.785 30.818 501.383 30.818 505.784 C 30.818 510.199 34.405 513.796 38.83 513.796 L 132.398 513.796 C 132.724 513.796 133.019 513.516 133.019 513.19 C 133.019 502.647 141.565 494.087 152.093 494.087 L 166.877 494.087 C 171.279 494.087 174.876 490.514 174.876 486.089 Z M 94.939 459.622 C 95.074 458.198 95.181 456.753 95.181 455.304 C 95.181 430.539 75.011 410.379 50.232 410.379 C 25.457 410.379 5.297 430.539 5.297 455.304 C 5.297 467.901 10.416 479.549 19.33 487.936 C 24.168 482.661 31.109 479.317 38.83 479.317 L 53.601 479.317 C 53.93 479.317 54.211 479.036 54.211 478.707 C 54.211 468.179 62.767 459.622 73.296 459.622 L 94.939 459.622 Z" transform="matrix(-1, 0, 0, -1, 0.000089, 0.000101)"/>
        <path style="fill: rgb(91, 121, 206); stroke-width: 1.013; transform-box: fill-box; transform-origin: 50% 50%;" d="M 141.358 410.379 C 145.759 410.379 149.36 413.955 149.36 418.367 C 149.36 422.793 145.759 426.369 141.358 426.369 L 126.573 426.369 C 116.045 426.369 107.499 434.926 107.499 445.468 C 107.499 445.797 107.208 446.075 106.878 446.075 L 13.311 446.075 C 8.885 446.075 5.298 442.477 5.298 438.062 C 5.298 433.661 8.885 430.064 13.311 430.064 L 28.084 430.064 C 38.599 430.064 47.173 421.504 47.173 410.989 C 47.173 410.635 47.44 410.379 47.779 410.379 L 141.358 410.379 Z" transform="matrix(-1, 0, 0, -1, -0.000026, 0.000068)"/>
        <path style="fill: rgb(224, 151, 79); stroke-width: 1.013; transform-box: fill-box; transform-origin: 50% 50%;" d="M 174.876 481.164 C 174.876 482.609 174.769 484.058 174.633 485.479 L 152.994 485.479 C 142.462 485.479 133.906 494.039 133.906 504.567 C 133.906 504.897 133.625 505.177 133.296 505.177 L 118.525 505.177 C 110.804 505.177 103.862 508.518 99.024 513.796 C 90.111 505.406 84.992 493.758 84.992 481.164 C 84.992 456.399 105.152 436.24 129.931 436.24 C 154.706 436.24 174.876 456.399 174.876 481.164 Z" transform="matrix(-1, 0, 0, -1, -0.00019, -0.000145)"/>
      </g>
    </g>
  </g>
  <g transform="matrix(0.5415, 0, 0, 0.5415, 77.541168, 1607.859131)" id="object-22" style="pointer-events: none;">
    <title>Balloon</title>
    <path style="fill: rgb(149, 120, 86); stroke-width: 1.563;" d="M 4043.14 2770.23 L 3938.79 2770.23 C 3895.64 2770.23 3860.53 2735.13 3860.53 2691.96 L 3860.53 2587.61 C 3860.53 2573.21 3872.22 2561.54 3886.62 2561.54 L 4095.31 2561.54 C 4109.72 2561.54 4121.23 2573.21 4121.23 2587.61 L 4121.23 2691.96 C 4121.23 2735.13 4086.3 2770.23 4043.14 2770.23 Z" id="object-5"/>
    <path style="stroke-width: 1.563; fill: rgb(149, 120, 86);" d="M 4095.31 2561.54 L 3990.97 2561.54 L 3990.97 2770.23 L 4043.14 2770.23 C 4086.29 2770.23 4121.23 2735.13 4121.23 2691.96 L 4121.23 2587.61 C 4121.23 2573.21 4109.72 2561.54 4095.31 2561.54 Z" id="object-6"/>
    <path d="M 3990.95 2387.61 C 3976.55 2387.61 3964.86 2375.94 3964.86 2361.54 L 3964.86 2309.35 C 3964.86 2294.95 3976.55 2283.28 3990.95 2283.28 C 4005.35 2283.28 4017.04 2294.95 4017.04 2309.35 L 4017.04 2361.54 C 4017.04 2375.94 4005.36 2387.61 3990.95 2387.61 Z" style="stroke-width: 1.563;" id="object-7"/>
    <path style="stroke: url(&quot;#color-8&quot;); stroke-width: 24.007; fill: rgb(224, 151, 79);" d="M 3886.58 2613.71 C 3874.26 2613.71 3863.3 2604.94 3860.97 2592.36 L 3817.38 2356.95 C 3814.74 2342.78 3824.1 2329.17 3838.27 2326.54 C 3852.43 2323.88 3866.04 2333.27 3868.67 2347.45 L 3912.26 2582.88 C 3914.9 2597.05 3905.54 2610.65 3891.37 2613.27 C 3889.76 2613.57 3888.16 2613.71 3886.58 2613.71 Z" id="object-8"/>
    <path style="stroke: url(&quot;#color-8&quot;); stroke-width: 24.007; fill: rgb(224, 151, 79);" d="M 4095.35 2613.71 C 4093.77 2613.71 4092.17 2613.57 4090.56 2613.27 C 4076.39 2610.65 4067.04 2597.04 4069.67 2582.86 L 4113.28 2347.44 C 4115.92 2333.27 4129.48 2323.86 4143.68 2326.54 C 4157.85 2329.17 4167.2 2342.78 4164.57 2356.95 L 4120.96 2592.38 C 4118.63 2604.94 4107.68 2613.71 4095.35 2613.71 Z" id="object-9"/>
    <path style="stroke-width: 1.563; fill: rgb(224, 151, 79);" d="M 3993.76 2613.71 C 3977.81 2613.71 3964.88 2602.02 3964.88 2587.61 L 3964.88 2413.71 C 3964.88 2399.3 3977.81 2387.61 3993.76 2387.61 C 4009.7 2387.61 4022.44 2399.3 4022.44 2413.71 L 4022.44 2587.61 C 4022.44 2602.02 4009.7 2613.71 3993.76 2613.71 Z" id="object-10"/>
    <path style="fill: none; stroke: url(&quot;#color-8&quot;); stroke-width: 24.007;" d="M 3992.05 2613.71 C 3974.11 2613.71 3959.57 2602.02 3959.57 2587.61 L 3959.57 2413.71 C 3959.57 2399.3 3974.11 2387.61 3992.05 2387.61 C 4009.96 2387.61 4024.29 2399.3 4024.29 2413.71 L 4024.29 2587.61 C 4024.29 2602.02 4009.96 2613.71 3992.05 2613.71 Z" id="object-11"/>
    <path style="stroke-width: 1.563; fill: rgb(224, 151, 79);" d="M 4016.88 2587.61 L 4016.88 2413.71 C 4016.88 2399.3 4005.37 2387.61 3990.97 2387.61 L 3990.97 2613.71 C 4005.37 2613.71 4016.88 2602.02 4016.88 2587.61 Z" id="object-12"/>
    <path style="fill: rgb(255, 228, 119); stroke-width: 12.927;" d="M 3990.97 1970.23 C 3861.58 1970.23 3756.18 2075.61 3756.18 2205.02 C 3756.18 2334.4 3861.58 2439.8 3990.97 2439.8 C 4120.36 2439.8 4225.75 2334.4 4225.75 2205.02 C 4225.75 2075.61 4120.36 1970.23 3990.97 1970.23 Z" id="object-13"/>
    <path style="fill: rgb(216, 72, 43); stroke-width: 12.927;" d="M 4225.75 2205.02 C 4225.75 2334.4 4120.36 2439.8 3990.97 2439.8 L 3990.97 1970.23 C 4120.36 1970.23 4225.75 2075.61 4225.75 2205.02 Z" id="object-14"/>
    <path style="fill: rgb(255, 95, 74); stroke-width: 1.563;" d="M 3990.97 1970.23 C 3916.53 1970.23 3860.53 2071.09 3860.53 2205.02 C 3860.53 2338.93 3916.53 2439.8 3990.97 2439.8 C 4065.4 2439.8 4121.4 2338.93 4121.4 2205.02 C 4121.4 2071.09 4065.4 1970.23 3990.97 1970.23 Z" id="object-15"/>
    <path style="fill: rgb(255, 182, 85); stroke-width: 1.563;" d="M 4121.4 2205.02 C 4121.4 2338.93 4065.4 2439.8 3990.97 2439.8 L 3990.97 1970.23 C 4065.4 1970.23 4121.4 2071.09 4121.4 2205.02 Z" id="object-16"/>
    <path style="fill: rgb(105, 107, 111); stroke-width: 12.927;" d="M 4147.49 2613.71 L 3834.44 2613.71 C 3820.04 2613.71 3808.36 2602.02 3808.36 2587.61 C 3808.36 2573.21 3820.04 2561.54 3834.44 2561.54 L 4147.49 2561.54 C 4161.89 2561.54 4173.58 2573.21 4173.58 2587.61 C 4173.58 2602.02 4161.89 2613.71 4147.49 2613.71 Z" id="object-17"/>
    <path style="stroke-width: 12.927; fill: rgb(105, 107, 111);" d="M 4147.49 2561.54 L 3990.97 2561.54 L 3990.97 2613.71 L 4147.49 2613.71 C 4161.89 2613.71 4173.58 2602.02 4173.58 2587.61 C 4173.58 2573.21 4161.89 2561.54 4147.49 2561.54 Z" id="object-18"/>
    <path style="fill: none; stroke: url(&quot;#color-8&quot;); stroke-width: 24.007;" d="M 3990.97 1970.22 C 3861.58 1970.22 3756.18 2075.6 3756.18 2205.01 C 3756.18 2334.39 3861.58 2439.8 3990.97 2439.8 C 4120.36 2439.8 4225.75 2334.39 4225.75 2205.01 C 4225.75 2075.6 4120.36 1970.22 3990.97 1970.22 Z" id="object-19"/>
    <path style="fill: none; stroke: url(&quot;#color-8&quot;); stroke-width: 24.007;" d="M 4043.14 2770.23 L 3938.79 2770.23 C 3895.64 2770.23 3860.53 2745.05 3860.53 2714.09 L 3860.53 2639.25 C 3860.53 2628.92 3872.22 2620.55 3886.62 2620.55 L 4095.31 2620.55 C 4109.72 2620.55 4121.23 2628.92 4121.23 2639.25 L 4121.23 2714.09 C 4121.23 2745.05 4086.3 2770.23 4043.14 2770.23 Z" id="object-20"/>
    <path style="fill: none; stroke: url(&quot;#color-8&quot;); stroke-width: 24.007;" d="M 4147.5 2613.71 L 3834.43 2613.71 C 3820.05 2613.71 3808.36 2602.02 3808.36 2587.61 C 3808.36 2573.21 3820.05 2561.54 3834.43 2561.54 L 4147.5 2561.54 C 4161.88 2561.54 4173.59 2573.21 4173.59 2587.61 C 4173.59 2602.02 4161.88 2613.71 4147.5 2613.71 Z" id="object-21"/>
  </g>
  <g id="Layer_1" transform="matrix(0.5415, 0, 0, 0.5415, 265.907318, 2071.529541)" style="pointer-events: none;">
    <title>BalloonWithClouds</title>
    <path style="stroke: url(&quot;#color-8&quot;); stroke-width: 24.0074px; fill: rgb(91, 121, 206);" d="M 2208.44 2935.68 C 2196.62 2917.6 2178.01 2906.47 2156.27 2903.68 C 2138.18 2870.99 2103.57 2850.12 2065.49 2850.12 L 2064.96 2850.12 C 2027.05 2850.29 1992.96 2871.16 1974.7 2903.68 C 1952.96 2906.47 1934.53 2917.6 1922.53 2935.68 C 1906.53 2960.03 1905.14 2993.77 1919.22 3019.68 C 1932.62 3044.55 1957.31 3058.81 1987.22 3058.81 L 2143.75 3058.81 C 2173.66 3058.81 2198.53 3044.55 2211.92 3019.68 C 2225.83 2993.6 2224.44 2959.86 2208.44 2935.68 Z"/>
    <path style="stroke-width: 1.563; fill: rgb(149, 120, 86);" d="M 1925.83 3232.73 L 1821.49 3232.73 L 1821.49 3441.42 L 1873.66 3441.42 C 1916.81 3441.42 1951.75 3406.32 1951.75 3363.16 L 1951.75 3258.81 C 1951.75 3244.41 1940.24 3232.73 1925.83 3232.73 Z"/>
    <path style="stroke: url(&quot;#color-8&quot;); stroke-width: 24.0074px; fill: rgb(91, 121, 206);" d="M 1721.49 2831.34 C 1709.66 2813.25 1691.05 2802.12 1669.31 2799.34 C 1651.22 2766.64 1616.62 2745.77 1578.53 2745.77 L 1578.01 2745.77 C 1540.1 2745.94 1506.01 2766.81 1487.75 2799.34 C 1466.01 2802.12 1447.57 2813.25 1435.58 2831.34 C 1419.58 2855.68 1418.18 2889.42 1432.27 2915.34 C 1445.66 2940.21 1470.36 2954.47 1500.27 2954.47 L 1656.79 2954.47 C 1686.7 2954.47 1711.57 2940.2 1724.96 2915.34 C 1738.88 2889.25 1737.48 2855.51 1721.49 2831.34 Z"/>
    <path style="stroke: url(&quot;#color-8&quot;); stroke-width: 24.0074px; fill: rgb(224, 151, 79);" d="M 1717.1 3284.91 C 1704.78 3284.91 1693.82 3276.13 1691.49 3263.56 L 1647.9 3028.14 C 1645.26 3013.97 1654.62 3000.36 1668.79 2997.74 C 1682.95 2995.08 1696.56 3004.46 1699.19 3018.64 L 1742.78 3254.07 C 1745.42 3268.24 1736.06 3281.84 1721.89 3284.47 C 1720.28 3284.77 1718.68 3284.91 1717.1 3284.91 Z"/>
    <path style="stroke: url(&quot;#color-8&quot;); stroke-width: 24.0074px; fill: rgb(224, 151, 79);" d="M 1925.87 3284.91 C 1924.29 3284.91 1922.69 3284.77 1921.08 3284.47 C 1906.91 3281.84 1897.56 3268.23 1900.19 3254.06 L 1943.8 3018.63 C 1946.44 3004.46 1960 2995.06 1974.2 2997.73 C 1988.37 3000.36 1997.72 3013.97 1995.09 3028.14 L 1951.48 3263.57 C 1949.15 3276.13 1938.2 3284.91 1925.87 3284.91 Z"/>
    <path style="stroke-width: 1.563; fill: rgb(224, 151, 79);" d="M 1824.28 3284.9 C 1808.33 3284.9 1795.4 3273.22 1795.4 3258.81 L 1795.4 3084.9 C 1795.4 3070.49 1808.33 3058.81 1824.28 3058.81 C 1840.22 3058.81 1852.96 3070.49 1852.96 3084.9 L 1852.96 3258.81 C 1852.96 3273.22 1840.22 3284.9 1824.28 3284.9 Z"/>
    <path style="fill: none; stroke: url(&quot;#color-8&quot;); stroke-width: 24.0074px;" d="M 1822.57 3284.9 C 1804.63 3284.9 1790.09 3273.22 1790.09 3258.81 L 1790.09 3084.9 C 1790.09 3070.49 1804.63 3058.81 1822.57 3058.81 C 1840.48 3058.81 1854.81 3070.49 1854.81 3084.9 L 1854.81 3258.81 C 1854.81 3273.22 1840.48 3284.9 1822.57 3284.9 Z"/>
    <path style="stroke-width: 12.9271px; fill: rgb(105, 107, 111);" d="M 1978.01 3232.73 L 1821.49 3232.73 L 1821.49 3284.9 L 1978.01 3284.9 C 1992.41 3284.9 2004.1 3273.22 2004.1 3258.81 C 2004.1 3244.41 1992.41 3232.73 1978.01 3232.73 Z"/>
    <path style="stroke-width: 1.563; fill: rgb(224, 151, 79);" d="M 1847.4 3258.81 L 1847.4 3084.9 C 1847.4 3070.49 1835.89 3058.81 1821.49 3058.81 L 1821.49 3284.9 C 1835.89 3284.9 1847.4 3273.22 1847.4 3258.81 Z"/>
    <path style="fill: rgb(255, 228, 119); stroke-width: 12.9271px;" d="M 1821.49 2641.42 C 1692.1 2641.42 1586.7 2746.81 1586.7 2876.21 C 1586.7 3005.6 1692.1 3110.99 1821.49 3110.99 C 1950.88 3110.99 2056.27 3005.6 2056.27 2876.21 C 2056.27 2746.81 1950.88 2641.42 1821.49 2641.42 Z"/>
    <path style="fill: rgb(216, 72, 43); stroke-width: 12.9271px;" d="M 2056.27 2876.21 C 2056.27 3005.6 1950.88 3110.99 1821.49 3110.99 L 1821.49 2641.42 C 1950.88 2641.42 2056.27 2746.81 2056.27 2876.21 Z"/>
    <path style="fill: rgb(255, 95, 74); stroke-width: 1.563;" d="M 1821.49 2641.42 C 1747.05 2641.42 1691.05 2742.29 1691.05 2876.21 C 1691.05 3010.12 1747.05 3110.99 1821.49 3110.99 C 1895.92 3110.99 1951.92 3010.12 1951.92 2876.21 C 1951.92 2742.29 1895.92 2641.42 1821.49 2641.42 Z"/>
    <path style="fill: rgb(255, 182, 85); stroke-width: 1.563;" d="M 1951.92 2876.21 C 1951.92 3010.12 1895.92 3110.99 1821.49 3110.99 L 1821.49 2641.42 C 1895.92 2641.42 1951.92 2742.29 1951.92 2876.21 Z"/>
    <path style="fill: rgb(105, 107, 111); stroke-width: 12.9271px;" d="M 1978.01 3284.9 L 1664.96 3284.9 C 1650.56 3284.9 1638.88 3273.22 1638.88 3258.81 C 1638.88 3244.4 1650.56 3232.73 1664.96 3232.73 L 1978.01 3232.73 C 1992.41 3232.73 2004.1 3244.4 2004.1 3258.81 C 2004.1 3273.22 1992.41 3284.9 1978.01 3284.9 Z"/>
    <path style="fill: none; stroke: url(&quot;#color-8&quot;); stroke-width: 24.0074px;" d="M 1821.49 2641.41 C 1692.1 2641.41 1586.7 2746.8 1586.7 2876.2 C 1586.7 3005.59 1692.1 3110.99 1821.49 3110.99 C 1950.88 3110.99 2056.27 3005.59 2056.27 2876.2 C 2056.27 2746.8 1950.88 2641.41 1821.49 2641.41 Z"/>
    <path style="fill: none; stroke: url(&quot;#color-8&quot;); stroke-width: 24.0074px;" d="M 1873.66 3441.42 L 1769.31 3441.42 C 1726.16 3441.42 1691.05 3416.24 1691.05 3385.29 L 1691.05 3310.45 C 1691.05 3300.11 1702.74 3291.74 1717.14 3291.74 L 1925.83 3291.74 C 1940.24 3291.74 1951.75 3300.11 1951.75 3310.45 L 1951.75 3385.29 C 1951.75 3416.24 1916.82 3441.42 1873.66 3441.42 Z"/>
    <path style="fill: rgb(149, 120, 86); stroke-width: 1.563;" d="M 1873.66 3441.42 L 1769.31 3441.42 C 1726.16 3441.42 1691.05 3406.32 1691.05 3363.16 L 1691.05 3258.81 C 1691.05 3244.4 1702.74 3232.73 1717.14 3232.73 L 1925.83 3232.73 C 1940.24 3232.73 1951.75 3244.4 1951.75 3258.81 L 1951.75 3363.16 C 1951.75 3406.32 1916.82 3441.42 1873.66 3441.42 Z"/>
    <path style="fill: none; stroke: url(&quot;#color-8&quot;); stroke-width: 24.0074px;" d="M 1978.02 3284.9 L 1664.95 3284.9 C 1650.57 3284.9 1638.88 3273.22 1638.88 3258.81 C 1638.88 3244.4 1650.57 3232.73 1664.95 3232.73 L 1978.02 3232.73 C 1992.4 3232.73 2004.11 3244.4 2004.11 3258.81 C 2004.11 3273.22 1992.4 3284.9 1978.02 3284.9 Z"/>
  </g>
  <g id="emoji" transform="matrix(1, 0, 0, 1, 136.986298, 196.347031)">
    <g id="color" transform="matrix(11.111111, 0, 0, 11.111111, 846.575378, 1409.208496)">
      <rect x="19" y="32" width="34" height="24" fill="#FFFFFF" stroke="none"/>
      <rect x="25" y="40" width="9" height="16" stroke="none" stroke-linecap="round" stroke-linejoin="round" stroke-miterlimit="10" stroke-width="2" style="fill: url(&quot;#color-11&quot;);"/>
      <rect x="40" y="40" width="8" height="7" fill="#92D3F5" stroke="none" stroke-linecap="round" stroke-linejoin="round" stroke-miterlimit="10" stroke-width="2"/>
      <polygon fill="#EA5A47" stroke="none" stroke-linecap="round" stroke-linejoin="round" stroke-miterlimit="10" stroke-width="2" points="53,32 19,32.0003 19,31 35,15 53,31"/>
      <polygon fill="#EA5A47" stroke="none" stroke-linecap="round" stroke-linejoin="round" stroke-miterlimit="10" stroke-width="2" points="29,21 24,26 24,17 29,17"/>
    </g>
    <g id="hair" transform="matrix(11.111111, 0, 0, 11.111111, 846.575378, 1409.208496)"/>
    <g id="skin" transform="matrix(11.111111, 0, 0, 11.111111, 846.575378, 1409.208496)"/>
    <g id="skin-shadow" transform="matrix(11.111111, 0, 0, 11.111111, 846.575378, 1409.208496)"/>
    <g id="line" transform="matrix(11.111111, 0, 0, 11.111111, 846.575378, 1409.208496)">
      <rect x="25" y="40" width="9" height="16" fill="none" stroke-linecap="round" stroke-linejoin="round" stroke-miterlimit="10" stroke-width="2" style="stroke: url(&quot;#color-8&quot;);"/>
      <rect x="40" y="40" width="8" height="7" fill="none" stroke-linecap="round" stroke-linejoin="round" stroke-miterlimit="10" stroke-width="2" style="stroke: url(&quot;#color-8&quot;);"/>
      <polygon fill="none" stroke-linecap="round" stroke-linejoin="round" stroke-miterlimit="10" stroke-width="2" points="53,32 19,32.0003 19,31 35,15 53,31" style="stroke: url(&quot;#color-8&quot;);"/>
      <rect x="19" y="32" width="34" height="24" fill="none" stroke-linecap="round" stroke-linejoin="round" stroke-miterlimit="10" stroke-width="2" style="stroke: url(&quot;#color-8&quot;);"/>
      <polygon fill="none" stroke-linecap="round" stroke-linejoin="round" stroke-miterlimit="10" stroke-width="2" points="29,21 24,26 24,17 29,17" style="stroke: url(&quot;#color-8&quot;);"/>
    </g>
  </g>
</svg>