<?xml version="1.0" encoding="utf-8"?>
<svg xmlns="http://www.w3.org/2000/svg" viewBox="2111.5129 2674.7334 254.2722 433.2055" width="254.272px" height="433.205px" xmlns:bx="https://boxy-svg.com" preserveAspectRatio="none">
  <defs>
    <linearGradient id="color-8" gradientUnits="userSpaceOnUse" bx:pinned="true" gradientTransform="matrix(0.531657, 0, 0, 0.60982, 14376.267822, -5994.618439)">
      <title>IconBorder</title>
      <stop style="stop-color: rgb(77, 77, 77)"/>
    </linearGradient>
  </defs>
  <g transform="matrix(0.508853, 0, 0, 0.508853, 207.834427, 1685.23999)" id="object-22" style="">
    <title>Balloon</title>
    <path style="fill: rgb(149, 120, 86); stroke-width: 1.563;" d="M 4043.14 2770.23 L 3938.79 2770.23 C 3895.64 2770.23 3860.53 2735.13 3860.53 2691.96 L 3860.53 2587.61 C 3860.53 2573.21 3872.22 2561.54 3886.62 2561.54 L 4095.31 2561.54 C 4109.72 2561.54 4121.23 2573.21 4121.23 2587.61 L 4121.23 2691.96 C 4121.23 2735.13 4086.3 2770.23 4043.14 2770.23 Z" id="object-5"/>
    <path style="stroke-width: 1.563; fill: rgb(149, 120, 86);" d="M 4095.31 2561.54 L 3990.97 2561.54 L 3990.97 2770.23 L 4043.14 2770.23 C 4086.29 2770.23 4121.23 2735.13 4121.23 2691.96 L 4121.23 2587.61 C 4121.23 2573.21 4109.72 2561.54 4095.31 2561.54 Z" id="object-6"/>
    <path d="M 3990.95 2387.61 C 3976.55 2387.61 3964.86 2375.94 3964.86 2361.54 L 3964.86 2309.35 C 3964.86 2294.95 3976.55 2283.28 3990.95 2283.28 C 4005.35 2283.28 4017.04 2294.95 4017.04 2309.35 L 4017.04 2361.54 C 4017.04 2375.94 4005.36 2387.61 3990.95 2387.61 Z" style="stroke-width: 1.563;" id="object-7"/>
    <path style="stroke: url(&quot;#color-8&quot;); stroke-width: 24.007; fill: rgb(224, 151, 79);" d="M 3886.58 2613.71 C 3874.26 2613.71 3863.3 2604.94 3860.97 2592.36 L 3817.38 2356.95 C 3814.74 2342.78 3824.1 2329.17 3838.27 2326.54 C 3852.43 2323.88 3866.04 2333.27 3868.67 2347.45 L 3912.26 2582.88 C 3914.9 2597.05 3905.54 2610.65 3891.37 2613.27 C 3889.76 2613.57 3888.16 2613.71 3886.58 2613.71 Z" id="object-8"/>
    <path style="stroke: url(&quot;#color-8&quot;); stroke-width: 24.007; fill: rgb(224, 151, 79);" d="M 4095.35 2613.71 C 4093.77 2613.71 4092.17 2613.57 4090.56 2613.27 C 4076.39 2610.65 4067.04 2597.04 4069.67 2582.86 L 4113.28 2347.44 C 4115.92 2333.27 4129.48 2323.86 4143.68 2326.54 C 4157.85 2329.17 4167.2 2342.78 4164.57 2356.95 L 4120.96 2592.38 C 4118.63 2604.94 4107.68 2613.71 4095.35 2613.71 Z" id="object-9"/>
    <path style="stroke-width: 1.563; fill: rgb(224, 151, 79);" d="M 3993.76 2613.71 C 3977.81 2613.71 3964.88 2602.02 3964.88 2587.61 L 3964.88 2413.71 C 3964.88 2399.3 3977.81 2387.61 3993.76 2387.61 C 4009.7 2387.61 4022.44 2399.3 4022.44 2413.71 L 4022.44 2587.61 C 4022.44 2602.02 4009.7 2613.71 3993.76 2613.71 Z" id="object-10"/>
    <path style="fill: none; stroke: url(&quot;#color-8&quot;); stroke-width: 24.007;" d="M 3992.05 2613.71 C 3974.11 2613.71 3959.57 2602.02 3959.57 2587.61 L 3959.57 2413.71 C 3959.57 2399.3 3974.11 2387.61 3992.05 2387.61 C 4009.96 2387.61 4024.29 2399.3 4024.29 2413.71 L 4024.29 2587.61 C 4024.29 2602.02 4009.96 2613.71 3992.05 2613.71 Z" id="object-11"/>
    <path style="stroke-width: 1.563; fill: rgb(224, 151, 79);" d="M 4016.88 2587.61 L 4016.88 2413.71 C 4016.88 2399.3 4005.37 2387.61 3990.97 2387.61 L 3990.97 2613.71 C 4005.37 2613.71 4016.88 2602.02 4016.88 2587.61 Z" id="object-12"/>
    <path style="fill: rgb(255, 228, 119); stroke-width: 12.927;" d="M 3990.97 1970.23 C 3861.58 1970.23 3756.18 2075.61 3756.18 2205.02 C 3756.18 2334.4 3861.58 2439.8 3990.97 2439.8 C 4120.36 2439.8 4225.75 2334.4 4225.75 2205.02 C 4225.75 2075.61 4120.36 1970.23 3990.97 1970.23 Z" id="object-13"/>
    <path style="fill: rgb(216, 72, 43); stroke-width: 12.927;" d="M 4225.75 2205.02 C 4225.75 2334.4 4120.36 2439.8 3990.97 2439.8 L 3990.97 1970.23 C 4120.36 1970.23 4225.75 2075.61 4225.75 2205.02 Z" id="object-14"/>
    <path style="fill: rgb(255, 95, 74); stroke-width: 1.563;" d="M 3990.97 1970.23 C 3916.53 1970.23 3860.53 2071.09 3860.53 2205.02 C 3860.53 2338.93 3916.53 2439.8 3990.97 2439.8 C 4065.4 2439.8 4121.4 2338.93 4121.4 2205.02 C 4121.4 2071.09 4065.4 1970.23 3990.97 1970.23 Z" id="object-15"/>
    <path style="fill: rgb(255, 182, 85); stroke-width: 1.563;" d="M 4121.4 2205.02 C 4121.4 2338.93 4065.4 2439.8 3990.97 2439.8 L 3990.97 1970.23 C 4065.4 1970.23 4121.4 2071.09 4121.4 2205.02 Z" id="object-16"/>
    <path style="fill: rgb(105, 107, 111); stroke-width: 12.927;" d="M 4147.49 2613.71 L 3834.44 2613.71 C 3820.04 2613.71 3808.36 2602.02 3808.36 2587.61 C 3808.36 2573.21 3820.04 2561.54 3834.44 2561.54 L 4147.49 2561.54 C 4161.89 2561.54 4173.58 2573.21 4173.58 2587.61 C 4173.58 2602.02 4161.89 2613.71 4147.49 2613.71 Z" id="object-17"/>
    <path style="stroke-width: 12.927; fill: rgb(105, 107, 111);" d="M 4147.49 2561.54 L 3990.97 2561.54 L 3990.97 2613.71 L 4147.49 2613.71 C 4161.89 2613.71 4173.58 2602.02 4173.58 2587.61 C 4173.58 2573.21 4161.89 2561.54 4147.49 2561.54 Z" id="object-18"/>
    <path style="fill: none; stroke: url(&quot;#color-8&quot;); stroke-width: 24.007;" d="M 3990.97 1970.22 C 3861.58 1970.22 3756.18 2075.6 3756.18 2205.01 C 3756.18 2334.39 3861.58 2439.8 3990.97 2439.8 C 4120.36 2439.8 4225.75 2334.39 4225.75 2205.01 C 4225.75 2075.6 4120.36 1970.22 3990.97 1970.22 Z" id="object-19"/>
    <path style="fill: none; stroke: url(&quot;#color-8&quot;); stroke-width: 24.007;" d="M 4043.14 2770.23 L 3938.79 2770.23 C 3895.64 2770.23 3860.53 2745.05 3860.53 2714.09 L 3860.53 2639.25 C 3860.53 2628.92 3872.22 2620.55 3886.62 2620.55 L 4095.31 2620.55 C 4109.72 2620.55 4121.23 2628.92 4121.23 2639.25 L 4121.23 2714.09 C 4121.23 2745.05 4086.3 2770.23 4043.14 2770.23 Z" id="object-20"/>
    <path style="fill: none; stroke: url(&quot;#color-8&quot;); stroke-width: 24.007;" d="M 4147.5 2613.71 L 3834.43 2613.71 C 3820.05 2613.71 3808.36 2602.02 3808.36 2587.61 C 3808.36 2573.21 3820.05 2561.54 3834.43 2561.54 L 4147.5 2561.54 C 4161.88 2561.54 4173.59 2573.21 4173.59 2587.61 C 4173.59 2602.02 4161.88 2613.71 4147.5 2613.71 Z" id="object-21"/>
  </g>
</svg>